<svg width="235" height="67" viewBox="0 0 235 67" fill="none" xmlns="http://www.w3.org/2000/svg">
<g clip-path="url(#clip0_26_2)">
<path fill-rule="evenodd" clip-rule="evenodd" d="M18.9523 42.8516H22.3388C22.6572 42.8516 22.9141 43.109 22.9141 43.4281V46.8238C22.9141 47.1429 22.6572 47.4004 22.3388 47.4004H18.9523C18.6339 47.4004 18.377 47.1429 18.377 46.8238V43.4281C18.377 43.109 18.6339 42.8516 18.9523 42.8516ZM22.9141 49.1684V52.564C22.9141 52.8832 22.6572 53.1406 22.3388 53.1406H18.9523C18.6339 53.1406 18.377 52.8832 18.377 52.564V49.1684C18.377 48.8492 18.6339 48.5918 18.9523 48.5918H22.3388C22.6572 48.5918 22.9141 48.8492 22.9141 49.1684ZM24.6806 42.8516H28.0671C28.3855 42.8516 28.6424 43.109 28.6424 43.4281V46.8238C28.6424 47.1429 28.3855 47.4004 28.0671 47.4004H24.6806C24.3621 47.4004 24.1052 47.1429 24.1052 46.8238V43.4281C24.1052 43.109 24.3621 42.8516 24.6806 42.8516ZM28.6424 49.1684V52.564C28.6424 52.8832 28.3855 53.1406 28.0671 53.1406H24.6806C24.3621 53.1406 24.1052 52.8832 24.1052 52.564V49.1684C24.1052 48.8492 24.3621 48.5918 24.6806 48.5918H28.0671C28.3855 48.5918 28.6424 48.8492 28.6424 49.1684Z" fill="#2A358A"/>
<path fill-rule="evenodd" clip-rule="evenodd" d="M23.5186 27.1396L13.1151 36.7222L11.9325 37.8094C11.4654 39.003 11.0429 40.22 10.7223 41.4327C10.304 43.0306 10.2085 44.6816 10.3975 46.3049H10.614L13.1151 44.0007L23.5186 34.4181L33.9221 44.0007L38.3616 48.29C38.2958 48.5134 38.2236 48.7389 38.1514 48.9601C37.0453 52.4749 34.6503 55.5195 31.334 57.4003L31.3212 57.4088C25.1768 61.0768 17.2892 60.1172 12.1979 55.0025C17.4209 66.8511 29.8732 68.3319 38.9964 61.1832C50.2534 52.3664 47.5443 32.6479 35.9582 21.1568L36.2385 24.3354C29.3382 15.7378 24.5653 8.55505 26.8053 0.885078C26.8838 0.585088 26.9772 0.289353 27.0855 0C16.803 9.03801 24.8095 19.8143 33.8372 30.782C35.7098 32.9543 37.092 35.484 37.9179 38.1945C38.2809 39.1349 38.5506 40.0881 38.7289 41.0498L35.6164 38.2477V33.5053H30.4295L23.5186 27.1417V27.1396Z" fill="#2D8B57"/>
<path fill-rule="evenodd" clip-rule="evenodd" d="M15.7917 26.6119C19.8576 20.4249 22.3735 13.0336 18.1187 4.46582C17.9446 25.2886 -9.82211 31.4182 3.72154 56.9046C1.90836 53.0281 1.32661 42.9923 5.48801 38.2094C0.555903 48.658 7.0273 67.1255 24.3056 67C10.8766 65.0979 5.89141 51.1005 8.25024 42.7391C9.8596 37.0329 14.4881 28.6034 15.7938 26.6119H15.7917Z" fill="#2A358A"/>
<path d="M59.0625 29.1314C59.5954 29.9888 60.3003 30.6399 61.175 31.0824C62.0497 31.525 63.0115 31.7462 64.0604 31.7462C64.9797 31.7462 65.7908 31.6271 66.4893 31.3867C67.1878 31.1463 67.8141 30.8335 68.3662 30.4463C68.9182 30.0591 69.4065 29.6442 69.829 29.2016V34.2355C69.0562 34.844 68.209 35.3248 67.2897 35.6738C66.3683 36.0248 65.2005 36.1993 63.7844 36.1993C62.2387 36.1993 60.8119 35.9589 59.5062 35.4802C58.1983 35.0015 57.0773 34.31 56.1389 33.4058C55.2004 32.5015 54.4722 31.4335 53.9584 30.1974C53.4424 28.9612 53.1855 27.5889 53.1855 26.0762C53.1855 24.5635 53.4424 23.1891 53.9584 21.9551C54.4743 20.7189 55.2004 19.6509 56.1389 18.7467C57.0773 17.8424 58.2005 17.151 59.5062 16.6723C60.8119 16.1935 62.2387 15.9531 63.7844 15.9531C65.2005 15.9531 66.3704 16.1276 67.2897 16.4786C68.209 16.8297 69.0562 17.3084 69.829 17.9169V22.9508C69.4044 22.5082 68.9182 22.0891 68.3662 21.6912C67.8141 21.2955 67.1878 20.9806 66.4893 20.7508C65.7886 20.5211 64.9797 20.404 64.0604 20.404C63.0115 20.404 62.0497 20.6253 61.175 21.0679C60.3003 21.5104 59.5975 22.1572 59.0625 23.004C58.5274 23.8529 58.262 24.8762 58.262 26.0741C58.262 27.2719 58.5295 28.274 59.0625 29.1314Z" fill="#2A358A"/>
<path d="M76.0826 21.98C76.607 20.7438 77.3395 19.6758 78.278 18.7716C79.2164 17.8673 80.3204 17.1716 81.5901 16.6823C82.8597 16.1929 84.2313 15.9482 85.7027 15.9482C87.174 15.9482 88.5689 16.1929 89.8301 16.6823C91.0912 17.1716 92.191 17.8673 93.1295 18.7716C94.0679 19.6758 94.794 20.746 95.31 21.98C95.8259 23.2161 96.0828 24.5799 96.0828 26.0735C96.0828 27.567 95.8301 28.9414 95.3227 30.1946C94.8153 31.4499 94.0976 32.5371 93.1698 33.4583C92.2399 34.3817 91.1401 35.0966 89.8704 35.6029C88.6008 36.1093 87.2101 36.3646 85.7027 36.3646C84.1952 36.3646 82.7769 36.1114 81.5073 35.6029C80.2376 35.0966 79.1378 34.3817 78.2079 33.4583C77.278 32.5371 76.5603 31.4477 76.055 30.1946C75.5476 28.9414 75.2949 27.567 75.2949 26.0735C75.2949 24.5799 75.5582 23.2161 76.0826 21.98ZM80.9128 29.1031C81.3629 29.9797 81.9977 30.6669 82.8173 31.1648C83.6368 31.6626 84.5986 31.9116 85.7027 31.9116C86.8067 31.9116 87.7409 31.6626 88.5604 31.1648C89.38 30.6669 90.0148 29.9797 90.4649 29.1031C90.915 28.2266 91.1422 27.2181 91.1422 26.0735C91.1422 24.9288 90.9214 23.9203 90.4798 23.0438C90.0382 22.1672 89.4118 21.48 88.6029 20.9821C87.7918 20.4843 86.8258 20.2353 85.7048 20.2353C84.5838 20.2353 83.6389 20.4843 82.8194 20.9821C81.9999 21.48 81.365 22.1672 80.9149 23.0438C80.4627 23.9203 80.2376 24.9309 80.2376 26.0735C80.2376 27.216 80.4627 28.2266 80.9149 29.1031H80.9128Z" fill="#2A358A"/>
<path d="M100.528 16.3908H115.685L106.547 31.7435H114.692V35.754H99.2031L108.203 20.5651H100.528V16.3887V16.3908Z" fill="#2A358A"/>
<path d="M137.907 16.3906L131.143 27.8711V35.756H126.395V27.8988L119.631 16.3906H124.988L128.769 23.667L132.55 16.3906H137.907Z" fill="#2A358A"/>
<path d="M166.425 26.0869C165.945 25.7847 165.423 25.5422 164.869 25.3528C165.657 24.9912 166.302 24.5124 166.799 23.9167C167.398 23.1976 167.697 22.3317 167.697 21.3168C167.697 20.2105 167.398 19.2935 166.799 18.5637C166.2 17.8361 165.391 17.2914 164.37 16.9318C163.349 16.5723 162.166 16.3936 160.822 16.3936H153.727V35.7589H161.291C162.818 35.7589 164.145 35.5695 165.266 35.1908C166.389 34.8142 167.257 34.227 167.875 33.4334C168.491 32.6398 168.801 31.5995 168.801 30.308C168.801 29.3314 168.584 28.4953 168.151 27.8038C167.718 27.1124 167.143 26.54 166.425 26.089V26.0869ZM160.323 20.0147C161.115 20.0147 161.735 20.1807 162.187 20.5126C162.637 20.8445 162.865 21.3423 162.865 22.0061C162.865 22.4487 162.763 22.8231 162.561 23.1274C162.359 23.4316 162.068 23.6657 161.691 23.8337C161.313 23.9997 160.858 24.0827 160.323 24.0827H158.391V20.0168H160.323V20.0147ZM163.54 31.1229C163.253 31.4824 162.873 31.742 162.393 31.8973C161.913 32.0548 161.372 32.1335 160.765 32.1335H158.391V27.3485H160.765C161.226 27.3485 161.644 27.389 162.022 27.4741C162.398 27.557 162.735 27.6911 163.03 27.8762C163.325 28.0613 163.555 28.3017 163.72 28.5953C163.886 28.891 163.969 29.2421 163.969 29.6463C163.969 30.274 163.826 30.7676 163.54 31.1271V31.1229Z" fill="#2A358A"/>
<path d="M185.999 28.2308C187.103 27.6968 187.942 26.9543 188.511 26.0033C189.082 25.0544 189.366 23.9608 189.366 22.7246C189.366 21.4885 189.08 20.3694 188.511 19.4184C187.939 18.4695 187.103 17.7269 185.999 17.1908C184.895 16.6567 183.515 16.3887 181.859 16.3887H174.818V35.754H179.485V29.0308H180.893L185.063 35.754H190.53L185.491 28.4479C185.668 28.3798 185.838 28.3096 186.001 28.2308H185.999ZM179.483 20.346H181.525C182.152 20.346 182.689 20.4481 183.141 20.6502C183.591 20.8524 183.937 21.1438 184.177 21.5226C184.417 21.9013 184.536 22.3566 184.536 22.8927C184.536 23.4289 184.417 23.8842 184.177 24.2629C183.937 24.6416 183.593 24.9267 183.141 25.1203C182.691 25.3139 182.152 25.4097 181.525 25.4097H179.483V20.3481V20.346Z" fill="#2A358A"/>
<path d="M212.169 18.7696C211.23 17.8654 210.13 17.1697 208.869 16.6803C207.608 16.191 206.232 15.9463 204.742 15.9463C203.251 15.9463 201.899 16.191 200.627 16.6803C199.358 17.1697 198.254 17.8654 197.315 18.7696C196.377 19.6738 195.644 20.744 195.12 21.978C194.595 23.2141 194.332 24.5779 194.332 26.0715C194.332 27.5651 194.585 28.9395 195.092 30.1926C195.597 31.4479 196.315 32.5351 197.245 33.4564C198.175 34.3797 199.275 35.0946 200.544 35.601C201.814 36.1073 203.213 36.3627 204.74 36.3627C206.266 36.3627 207.638 36.1095 208.908 35.601C210.177 35.0946 211.277 34.3797 212.207 33.4564C213.137 32.5351 213.855 31.4458 214.36 30.1926C214.865 28.9395 215.12 27.5651 215.12 26.0715C215.12 24.5779 214.861 23.2141 214.347 21.978C213.831 20.7419 213.105 19.6738 212.167 18.7696H212.169ZM209.506 29.1033C209.054 29.9799 208.419 30.6671 207.602 31.165C206.782 31.6628 205.831 31.9117 204.744 31.9117C203.657 31.9117 202.678 31.6628 201.859 31.165C201.039 30.6671 200.404 29.9799 199.954 29.1033C199.504 28.2267 199.277 27.2183 199.277 26.0736C199.277 24.929 199.502 23.9205 199.954 23.0439C200.404 22.1674 201.039 21.4802 201.859 20.9823C202.678 20.4844 203.64 20.2355 204.744 20.2355C205.848 20.2355 206.833 20.4844 207.642 20.9823C208.451 21.4802 209.077 22.1674 209.519 23.0439C209.961 23.9205 210.181 24.9311 210.181 26.0736C210.181 27.2161 209.956 28.2267 209.504 29.1033H209.506Z" fill="#2A358A"/>
<path d="M234.612 28.0925C234.355 27.4649 234 26.9117 233.548 26.433C233.098 25.9543 232.578 25.5437 231.988 25.2011C231.397 24.8607 230.763 24.5607 230.083 24.3012C229.181 23.9884 228.412 23.6927 227.777 23.4161C227.143 23.1395 226.654 22.8353 226.315 22.5034C225.973 22.1714 225.803 21.7842 225.803 21.3417C225.803 20.8991 225.977 20.563 226.327 20.2758C226.678 19.9907 227.183 19.8481 227.845 19.8481C228.342 19.8481 228.807 19.9439 229.24 20.1375C229.673 20.3311 230.068 20.5992 230.427 20.9396C230.786 21.28 231.104 21.6821 231.38 22.1438L234.941 20.1524C234.61 19.4886 234.13 18.8333 233.506 18.1886C232.879 17.5439 232.094 17.0078 231.145 16.5844C230.196 16.161 229.079 15.9482 227.79 15.9482C226.501 15.9482 225.402 16.1653 224.38 16.5993C223.359 17.0333 222.548 17.6631 221.951 18.495C221.353 19.3247 221.053 20.3119 221.053 21.4544C221.053 22.414 221.227 23.2289 221.578 23.9033C221.928 24.5778 222.37 25.148 222.903 25.6181C223.436 26.0883 224.002 26.4713 224.601 26.767C225.2 27.0628 225.729 27.2926 226.189 27.4585C227.128 27.8096 227.881 28.1223 228.453 28.3989C229.024 28.6755 229.438 28.967 229.695 29.2712C229.952 29.5755 230.081 29.9776 230.081 30.4754C230.081 31.0648 229.86 31.5307 229.419 31.8733C228.977 32.2158 228.414 32.386 227.735 32.386C227.09 32.386 226.478 32.2477 225.898 31.9711C225.319 31.6946 224.784 31.2988 224.298 30.7818C223.809 30.2648 223.372 29.6563 222.985 28.9563L219.729 31.3073C220.17 32.2307 220.786 33.0775 221.578 33.8519C222.37 34.6264 223.304 35.2391 224.38 35.6923C225.457 36.1433 226.62 36.371 227.873 36.371C228.775 36.371 229.654 36.237 230.51 35.9689C231.366 35.7008 232.13 35.3093 232.801 34.7923C233.472 34.2753 234.007 33.6349 234.402 32.869C234.797 32.1031 234.996 31.2329 234.996 30.2542C234.996 29.4436 234.867 28.7244 234.61 28.0968L234.612 28.0925Z" fill="#2A358A"/>
<path d="M56.489 40.0225V46.4414H54.9434V40.0225H56.489ZM55.3722 42.3607H60.213V43.7543H55.3722V42.3607ZM60.7905 40.0225V46.4414H59.2449V40.0225H60.7905Z" fill="#2D8B57"/>
<path d="M65.9058 40.0225V46.4414H64.4238V40.0225H65.9058ZM65.4472 40.0225H68.6765V41.2969H65.4472V40.0225ZM65.4472 42.4437H68.4939V43.6904H65.4472V42.4437ZM65.4472 45.167H68.6765V46.4414H65.4472V45.167Z" fill="#2D8B57"/>
<path d="M74.0124 44.4521L74.0846 44.7903L73.2884 46.4413H71.541L74.9083 39.6182L78.2842 46.4413H76.5283L75.7597 44.8542L75.8149 44.4606L74.9083 42.3798L74.0124 44.4521ZM73.3457 44.0201H76.522L76.6217 45.2031H73.2353L73.3457 44.0201Z" fill="#2D8B57"/>
<path d="M79.9609 40.0225H85.031V41.4075H83.2646V46.4414H81.7189V41.4075H79.9631V40.0225H79.9609Z" fill="#2D8B57"/>
<path d="M89.5948 40.0225V46.4414H88.0215V40.0225H89.5948Z" fill="#2D8B57"/>
<path d="M99.1492 40.0224V46.7626L94.7203 42.8287V46.4414H93.2383V39.7012L97.6587 43.6351V40.0224H99.1513H99.1492Z" fill="#2D8B57"/>
<path d="M105.965 42.9283H109.205C109.235 43.441 109.184 43.9219 109.05 44.3686C108.916 44.8154 108.708 45.209 108.428 45.5516C108.148 45.8941 107.798 46.1622 107.375 46.3537C106.955 46.5452 106.473 46.643 105.929 46.643C105.417 46.643 104.946 46.5622 104.519 46.4005C104.093 46.2388 103.723 46.0069 103.413 45.7026C103.101 45.4005 102.859 45.0388 102.685 44.6197C102.511 44.2006 102.424 43.7389 102.424 43.2304C102.424 42.7219 102.513 42.2623 102.689 41.8496C102.865 41.4368 103.116 41.0836 103.439 40.79C103.761 40.4964 104.139 40.2709 104.572 40.1113C105.006 39.9518 105.475 39.873 105.982 39.873C106.432 39.873 106.84 39.9369 107.199 40.0645C107.558 40.1922 107.878 40.3709 108.154 40.6007C108.432 40.8305 108.672 41.0943 108.872 41.3943L107.5 42.1091C107.354 41.8517 107.156 41.6389 106.91 41.4709C106.664 41.3028 106.354 41.2177 105.982 41.2177C105.611 41.2177 105.296 41.2964 105.003 41.456C104.71 41.6155 104.477 41.8432 104.303 42.1389C104.129 42.4347 104.042 42.7985 104.042 43.2261C104.042 43.6538 104.127 44.0133 104.294 44.3218C104.462 44.6303 104.691 44.8686 104.98 45.0367C105.269 45.2048 105.604 45.2899 105.982 45.2899C106.214 45.2899 106.424 45.2601 106.613 45.2027C106.802 45.1452 106.963 45.0622 107.097 44.9559C107.231 44.8495 107.345 44.724 107.441 44.5793C107.534 44.4367 107.611 44.2814 107.666 44.1155H105.963V42.924L105.965 42.9283Z" fill="#2D8B57"/>
<path d="M118.507 42.5586C118.369 42.3969 118.257 42.2267 118.17 42.0501C118.08 41.8735 118.036 41.6735 118.036 41.4544C118.036 41.1905 118.114 40.9374 118.274 40.6927C118.433 40.448 118.66 40.2502 118.955 40.097C119.25 39.9438 119.601 39.8672 120.002 39.8672C120.403 39.8672 120.743 39.9438 121.017 40.097C121.291 40.2502 121.499 40.4438 121.639 40.6799C121.779 40.9161 121.849 41.1608 121.849 41.4182C121.849 41.6331 121.815 41.8161 121.749 41.9735C121.684 42.1309 121.582 42.2756 121.448 42.4139C121.314 42.5522 121.148 42.6884 120.953 42.8267C120.758 42.965 120.533 43.1181 120.276 43.2905C120.117 43.3947 119.945 43.4883 119.758 43.5692C119.571 43.6522 119.399 43.7373 119.24 43.8266C119.081 43.916 118.951 44.0181 118.847 44.1373C118.743 44.2564 118.692 44.4117 118.692 44.6011C118.692 44.7479 118.73 44.8819 118.807 45.0053C118.883 45.1287 118.993 45.2245 119.136 45.2947C119.278 45.3649 119.454 45.4011 119.662 45.4011C119.926 45.4011 120.182 45.3457 120.435 45.2351C120.688 45.1245 120.934 44.9755 121.172 44.7862C121.41 44.5968 121.635 44.3756 121.845 44.1266C122.055 43.8756 122.255 43.6075 122.444 43.3203L123.367 44.0351C123.165 44.3224 122.934 44.616 122.671 44.916C122.407 45.216 122.115 45.4883 121.792 45.7372C121.469 45.984 121.112 46.1861 120.726 46.3372C120.337 46.4904 119.921 46.567 119.478 46.567C119.068 46.567 118.694 46.4925 118.357 46.3478C118.019 46.201 117.747 45.9904 117.548 45.7159C117.346 45.4415 117.246 45.1138 117.246 44.7351C117.246 44.4415 117.303 44.1883 117.42 43.9777C117.535 43.7671 117.686 43.5862 117.868 43.4373C118.051 43.2884 118.248 43.1628 118.458 43.0607C118.669 42.9607 118.87 42.8735 119.064 42.799C119.255 42.7245 119.416 42.6586 119.543 42.5969C119.885 42.4309 120.146 42.2586 120.327 42.0735C120.507 41.8905 120.596 41.7161 120.596 41.5501C120.596 41.4522 120.571 41.3608 120.522 41.2757C120.473 41.1905 120.405 41.1182 120.316 41.0608C120.227 41.0033 120.119 40.9735 119.991 40.9735C119.783 40.9735 119.628 41.0331 119.524 41.1523C119.42 41.2714 119.369 41.4054 119.369 41.5501C119.369 41.7267 119.45 41.9097 119.611 42.0969C119.773 42.2841 119.976 42.5118 120.221 42.7799L123.607 46.4478H122.023L118.921 43.0373C118.781 42.8841 118.643 42.7267 118.505 42.565L118.507 42.5586Z" fill="#2D8B57"/>
<path d="M133.346 44.2459C133.522 44.531 133.755 44.7459 134.046 44.8927C134.337 45.0395 134.656 45.1118 135.002 45.1118C135.307 45.1118 135.575 45.0714 135.806 44.9927C136.038 44.9139 136.246 44.8097 136.428 44.682C136.611 44.5544 136.772 44.4161 136.912 44.2693V45.9373C136.656 46.1394 136.375 46.299 136.072 46.4139C135.766 46.5309 135.38 46.5884 134.91 46.5884C134.399 46.5884 133.925 46.5096 133.492 46.3501C133.059 46.1905 132.687 45.9628 132.375 45.6629C132.065 45.3629 131.823 45.0097 131.653 44.5991C131.484 44.1906 131.396 43.7331 131.396 43.2331C131.396 42.7332 131.481 42.2757 131.653 41.8672C131.825 41.4587 132.065 41.1034 132.375 40.8034C132.687 40.5034 133.059 40.2758 133.492 40.1162C133.925 39.9567 134.399 39.8779 134.91 39.8779C135.38 39.8779 135.768 39.9354 136.072 40.0524C136.377 40.1694 136.658 40.3269 136.912 40.529V42.197C136.772 42.0502 136.611 41.9119 136.428 41.78C136.246 41.6481 136.038 41.5438 135.806 41.4694C135.575 41.3949 135.305 41.3545 135.002 41.3545C134.653 41.3545 134.335 41.4289 134.046 41.5736C133.757 41.7183 133.524 41.9353 133.346 42.2162C133.167 42.497 133.08 42.8374 133.08 43.2331C133.08 43.6289 133.169 43.9629 133.346 44.2459Z" fill="#2D8B57"/>
<path d="M140.359 41.8757C140.533 41.4651 140.775 41.1119 141.087 40.8119C141.399 40.512 141.764 40.2822 142.185 40.1205C142.605 39.9588 143.059 39.8779 143.548 39.8779C144.036 39.8779 144.497 39.9588 144.915 40.1205C145.333 40.2822 145.698 40.5141 146.008 40.8119C146.32 41.1119 146.56 41.4651 146.732 41.8757C146.902 42.2864 146.989 42.7374 146.989 43.2331C146.989 43.7289 146.904 44.1842 146.737 44.5991C146.569 45.0139 146.331 45.3756 146.023 45.682C145.715 45.9884 145.35 46.2245 144.93 46.3926C144.509 46.5607 144.049 46.6437 143.548 46.6437C143.047 46.6437 142.577 46.5607 142.157 46.3926C141.737 46.2245 141.371 45.9884 141.064 45.682C140.756 45.3756 140.518 45.0161 140.35 44.5991C140.182 44.1842 140.1 43.7289 140.1 43.2331C140.1 42.7374 140.187 42.2864 140.361 41.8757H140.359ZM141.96 44.2352C142.108 44.5267 142.32 44.7544 142.59 44.9182C142.862 45.0841 143.18 45.165 143.545 45.165C143.911 45.165 144.221 45.082 144.492 44.9182C144.764 44.7522 144.974 44.5246 145.123 44.2352C145.272 43.9459 145.348 43.6097 145.348 43.231C145.348 42.8523 145.274 42.5183 145.129 42.2268C144.983 41.9374 144.775 41.7077 144.507 41.5438C144.24 41.3779 143.919 41.297 143.545 41.297C143.172 41.297 142.86 41.38 142.59 41.5438C142.318 41.7098 142.108 41.9374 141.96 42.2268C141.811 42.5161 141.734 42.8523 141.734 43.231C141.734 43.6097 141.809 43.9459 141.96 44.2352Z" fill="#2D8B57"/>
<path d="M150.159 41.8757C150.334 41.4651 150.576 41.1119 150.888 40.8119C151.2 40.512 151.565 40.2822 151.985 40.1205C152.406 39.9588 152.86 39.8779 153.348 39.8779C153.837 39.8779 154.297 39.9588 154.716 40.1205C155.134 40.2822 155.499 40.5141 155.809 40.8119C156.121 41.1119 156.361 41.4651 156.533 41.8757C156.703 42.2864 156.79 42.7374 156.79 43.2331C156.79 43.7289 156.705 44.1842 156.537 44.5991C156.37 45.0139 156.132 45.3756 155.824 45.682C155.516 45.9884 155.151 46.2245 154.731 46.3926C154.31 46.5607 153.849 46.6437 153.348 46.6437C152.847 46.6437 152.378 46.5607 151.958 46.3926C151.537 46.2245 151.172 45.9884 150.864 45.682C150.556 45.3756 150.319 45.0161 150.151 44.5991C149.983 44.1842 149.9 43.7289 149.9 43.2331C149.9 42.7374 149.987 42.2864 150.162 41.8757H150.159ZM151.76 44.2352C151.909 44.5267 152.121 44.7544 152.391 44.9182C152.663 45.0841 152.981 45.165 153.346 45.165C153.711 45.165 154.021 45.082 154.293 44.9182C154.565 44.7522 154.775 44.5246 154.924 44.2352C155.072 43.9459 155.149 43.6097 155.149 43.231C155.149 42.8523 155.075 42.5183 154.93 42.2268C154.784 41.9374 154.576 41.7077 154.308 41.5438C154.041 41.3779 153.72 41.297 153.346 41.297C152.973 41.297 152.661 41.38 152.391 41.5438C152.119 41.7098 151.909 41.9374 151.76 42.2268C151.612 42.5161 151.535 42.8523 151.535 43.231C151.535 43.6097 151.61 43.9459 151.76 44.2352Z" fill="#2D8B57"/>
<path d="M161.61 40.0225V45.1117H164.181V46.4414H160.064V40.0225H161.61Z" fill="#2D8B57"/>
<path d="M168.757 40.0225V46.4414H167.184V40.0225H168.757Z" fill="#2D8B57"/>
<path d="M178.309 40.0224V46.7626L173.88 42.8287V46.4414H172.398V39.7012L176.819 43.6351V40.0224H178.311H178.309Z" fill="#2D8B57"/>
<path d="M185.128 42.9283H188.367C188.397 43.441 188.346 43.9219 188.212 44.3686C188.079 44.8154 187.871 45.209 187.59 45.5516C187.31 45.8941 186.96 46.1622 186.537 46.3537C186.117 46.5452 185.635 46.643 185.091 46.643C184.58 46.643 184.108 46.5622 183.682 46.4005C183.255 46.2388 182.885 46.0069 182.573 45.7026C182.263 45.4005 182.019 45.0388 181.845 44.6197C181.671 44.2006 181.584 43.7389 181.584 43.2304C181.584 42.7219 181.673 42.2623 181.849 41.8496C182.026 41.4368 182.276 41.0836 182.599 40.79C182.922 40.4964 183.299 40.2709 183.733 40.1113C184.166 39.9518 184.635 39.873 185.142 39.873C185.595 39.873 186 39.9369 186.359 40.0645C186.718 40.1922 187.038 40.3709 187.314 40.6007C187.59 40.8305 187.832 41.0943 188.032 41.3943L186.66 42.1091C186.514 41.8517 186.317 41.6389 186.07 41.4709C185.824 41.3028 185.514 41.2177 185.142 41.2177C184.771 41.2177 184.457 41.2964 184.164 41.456C183.871 41.6155 183.637 41.8432 183.463 42.1389C183.289 42.4347 183.202 42.7985 183.202 43.2261C183.202 43.6538 183.285 44.0133 183.454 44.3218C183.622 44.6303 183.852 44.8686 184.14 45.0367C184.429 45.2048 184.764 45.2899 185.142 45.2899C185.374 45.2899 185.584 45.2601 185.773 45.2027C185.962 45.1452 186.123 45.0622 186.257 44.9559C186.391 44.8495 186.505 44.724 186.601 44.5793C186.694 44.4367 186.771 44.2814 186.826 44.1155H185.123V42.924L185.128 42.9283Z" fill="#2D8B57"/>
</g>
<defs>
<clipPath id="clip0_26_2">
<rect width="235" height="67" fill="white"/>
</clipPath>
</defs>
</svg>
