<svg width="279" height="79" viewBox="0 0 279 79" fill="none" xmlns="http://www.w3.org/2000/svg">
<g clip-path="url(#clip0_89_559)">
<path fill-rule="evenodd" clip-rule="evenodd" d="M22.5015 50.5269H26.522C26.9001 50.5269 27.2051 50.8304 27.2051 51.2067V55.2105C27.2051 55.5868 26.9001 55.8904 26.522 55.8904H22.5015C22.1234 55.8904 21.8184 55.5868 21.8184 55.2105V51.2067C21.8184 50.8304 22.1234 50.5269 22.5015 50.5269ZM27.2051 57.975V61.9789C27.2051 62.3552 26.9001 62.6587 26.522 62.6587H22.5015C22.1234 62.6587 21.8184 62.3552 21.8184 61.9789V57.975C21.8184 57.5988 22.1234 57.2952 22.5015 57.2952H26.522C26.9001 57.2952 27.2051 57.5988 27.2051 57.975ZM29.3023 50.5269H33.3228C33.7009 50.5269 34.0059 50.8304 34.0059 51.2067V55.2105C34.0059 55.5868 33.7009 55.8904 33.3228 55.8904H29.3023C28.9242 55.8904 28.6192 55.5868 28.6192 55.2105V51.2067C28.6192 50.8304 28.9242 50.5269 29.3023 50.5269ZM34.0059 57.975V61.9789C34.0059 62.3552 33.7009 62.6587 33.3228 62.6587H29.3023C28.9242 62.6587 28.6192 62.3552 28.6192 61.9789V57.975C28.6192 57.5988 28.9242 57.2952 29.3023 57.2952H33.3228C33.7009 57.2952 34.0059 57.5988 34.0059 57.975Z" fill="white"/>
<path fill-rule="evenodd" clip-rule="evenodd" d="M27.9204 32.0004L15.569 43.2994L14.165 44.5813C13.6105 45.9886 13.1089 47.4236 12.7282 48.8535C12.2317 50.7375 12.1182 52.6842 12.3426 54.5983H12.5997L15.569 51.8815L27.9204 40.5825L40.2718 51.8815L45.5426 56.9389C45.4644 57.2023 45.3787 57.4682 45.293 57.7291C43.9797 61.8734 41.1364 65.4633 37.1991 67.681L37.184 67.691C29.8891 72.0159 20.5247 70.8845 14.4801 64.8537C20.681 78.8244 35.4648 80.5704 46.2963 72.1413C59.6609 61.7455 56.4445 38.4953 42.6891 24.9461L43.0219 28.694C34.8296 18.5565 29.1631 10.0873 31.8225 1.0436C31.9157 0.68988 32.0266 0.341177 32.1552 0C19.9475 10.6568 29.453 23.3631 40.171 36.2952C42.3942 38.8565 44.0352 41.8393 45.0157 45.0353C45.4468 46.1442 45.7669 47.268 45.9786 48.402L42.2833 45.0981V39.5063H36.1253L27.9204 32.0029V32.0004Z" fill="white"/>
<path fill-rule="evenodd" clip-rule="evenodd" d="M18.7485 31.3782C23.5756 24.083 26.5626 15.368 21.5111 5.26562C21.3044 29.8178 -11.6611 37.0452 4.41833 67.0964C2.26567 62.5256 1.575 50.6923 6.51555 45.0529C0.659987 57.3729 8.34305 79.148 28.8564 79C12.9131 76.7572 6.99448 60.2528 9.79497 50.3938C11.7056 43.6656 17.2008 33.7263 18.751 31.3782H18.7485Z" fill="white"/>
<path d="M70.1198 34.3482C70.7525 35.3592 71.5894 36.1268 72.6279 36.6486C73.6665 37.1704 74.8083 37.4313 76.0535 37.4313C77.145 37.4313 78.1079 37.2908 78.9372 37.0073C79.7665 36.7239 80.5101 36.3551 81.1655 35.8985C81.8209 35.4419 82.4006 34.9528 82.9023 34.431V40.3664C81.9847 41.0839 80.979 41.6509 79.8875 42.0623C78.7935 42.4762 77.4072 42.6819 75.7259 42.6819C73.8908 42.6819 72.1969 42.3984 70.6467 41.834C69.0939 41.2695 67.763 40.4542 66.6489 39.3881C65.5347 38.3219 64.6701 37.0625 64.0601 35.605C63.4476 34.1475 63.1426 32.5294 63.1426 30.7457C63.1426 28.9621 63.4476 27.3415 64.0601 25.8865C64.6726 24.429 65.5347 23.1696 66.6489 22.1034C67.763 21.0373 69.0964 20.2219 70.6467 19.6575C72.1969 19.093 73.8908 18.8096 75.7259 18.8096C77.4072 18.8096 78.7961 19.0153 79.8875 19.4292C80.979 19.8431 81.9847 20.4076 82.9023 21.1251V27.0605C82.3981 26.5387 81.8209 26.0445 81.1655 25.5754C80.5101 25.1088 79.7665 24.7375 78.9372 24.4666C78.1054 24.1956 77.145 24.0577 76.0535 24.0577C74.8083 24.0577 73.6665 24.3186 72.6279 24.8404C71.5894 25.3622 70.7551 26.1248 70.1198 27.1232C69.4846 28.1242 69.1695 29.3309 69.1695 30.7432C69.1695 32.1556 69.4872 33.3372 70.1198 34.3482Z" fill="white"/>
<path d="M90.3258 25.9167C90.9484 24.4592 91.818 23.1998 92.9322 22.1337C94.0463 21.0675 95.3571 20.2472 96.8645 19.6702C98.3718 19.0932 100 18.8047 101.747 18.8047C103.494 18.8047 105.15 19.0932 106.647 19.6702C108.145 20.2472 109.45 21.0675 110.564 22.1337C111.679 23.1998 112.541 24.4617 113.153 25.9167C113.766 27.3742 114.071 28.9823 114.071 30.7434C114.071 32.5044 113.771 34.125 113.168 35.6026C112.566 37.0827 111.714 38.3647 110.612 39.4509C109.508 40.5397 108.203 41.3826 106.695 41.9796C105.188 42.5767 103.537 42.8777 101.747 42.8777C99.9574 42.8777 98.2735 42.5792 96.7662 41.9796C95.2588 41.3826 93.9531 40.5397 92.849 39.4509C91.7449 38.3647 90.893 37.0802 90.293 35.6026C89.6906 34.125 89.3906 32.5044 89.3906 30.7434C89.3906 28.9823 89.7032 27.3742 90.3258 25.9167ZM96.0604 34.3157C96.5948 35.3493 97.3484 36.1595 98.3214 36.7466C99.2944 37.3336 100.436 37.6271 101.747 37.6271C103.058 37.6271 104.167 37.3336 105.14 36.7466C106.113 36.1595 106.867 35.3493 107.401 34.3157C107.935 33.2821 108.205 32.093 108.205 30.7434C108.205 29.3937 107.943 28.2046 107.419 27.171C106.894 26.1375 106.151 25.3272 105.19 24.7402C104.227 24.1531 103.08 23.8596 101.75 23.8596C100.419 23.8596 99.2969 24.1531 98.3239 24.7402C97.351 25.3272 96.5973 26.1375 96.0629 27.171C95.526 28.2046 95.2588 29.3962 95.2588 30.7434C95.2588 32.0905 95.526 33.2821 96.0629 34.3157H96.0604Z" fill="white"/>
<path d="M119.348 19.3267H137.344L126.494 37.4292H136.164V42.158H117.775L128.461 24.2487H119.348V19.3242V19.3267Z" fill="white"/>
<path d="M163.725 19.3267L155.695 32.8634V42.1604H150.058V32.896L142.027 19.3267H148.387L152.876 27.9063L157.366 19.3267H163.725Z" fill="white"/>
<path d="M197.584 30.7585C197.014 30.4023 196.394 30.1163 195.736 29.893C196.672 29.4666 197.438 28.9021 198.028 28.1997C198.739 27.3518 199.094 26.3308 199.094 25.1341C199.094 23.8296 198.739 22.7484 198.028 21.8879C197.317 21.03 196.356 20.3878 195.144 19.9638C193.932 19.5398 192.528 19.3291 190.932 19.3291H182.508V42.1629H191.489C193.301 42.1629 194.877 41.9396 196.208 41.4931C197.541 41.049 198.572 40.3566 199.306 39.4209C200.037 38.4852 200.405 37.2584 200.405 35.7357C200.405 34.5842 200.148 33.5983 199.633 32.783C199.119 31.9677 198.436 31.2929 197.584 30.761V30.7585ZM190.34 23.5988C191.28 23.5988 192.016 23.7945 192.553 24.1859C193.087 24.5772 193.357 25.1642 193.357 25.9469C193.357 26.4687 193.236 26.9103 192.996 27.269C192.757 27.6277 192.412 27.9037 191.963 28.1019C191.514 28.2975 190.975 28.3954 190.34 28.3954H188.046V23.6013H190.34V23.5988ZM194.158 36.6965C193.818 37.1205 193.367 37.4265 192.797 37.6097C192.228 37.7953 191.585 37.8881 190.864 37.8881H188.046V32.2462H190.864C191.411 32.2462 191.907 32.2938 192.356 32.3942C192.802 32.492 193.203 32.6501 193.553 32.8683C193.904 33.0866 194.176 33.37 194.373 33.7162C194.569 34.0649 194.668 34.4789 194.668 34.9555C194.668 35.6956 194.499 36.2776 194.158 36.7015V36.6965Z" fill="white"/>
<path d="M220.823 33.2874C222.134 32.6577 223.129 31.7822 223.805 30.6608C224.483 29.542 224.821 28.2525 224.821 26.795C224.821 25.3375 224.48 24.0179 223.805 22.8965C223.127 21.7777 222.134 20.9022 220.823 20.27C219.512 19.6403 217.874 19.3242 215.907 19.3242H207.549V42.158H213.089V34.2306H214.761L219.711 42.158H226.202L220.22 33.5433C220.43 33.463 220.631 33.3802 220.825 33.2874H220.823ZM213.087 23.9903H215.512C216.255 23.9903 216.893 24.1107 217.43 24.3491C217.964 24.5874 218.375 24.9311 218.66 25.3776C218.945 25.8241 219.086 26.361 219.086 26.9932C219.086 27.6254 218.945 28.1622 218.66 28.6087C218.375 29.0553 217.967 29.3914 217.43 29.6197C216.896 29.848 216.255 29.9609 215.512 29.9609H213.087V23.9928V23.9903Z" fill="white"/>
<path d="M251.893 22.1312C250.779 21.0651 249.473 20.2447 247.976 19.6677C246.479 19.0907 244.845 18.8022 243.076 18.8022C241.306 18.8022 239.701 19.0907 238.191 19.6677C236.683 20.2447 235.373 21.0651 234.258 22.1312C233.144 23.1974 232.275 24.4593 231.652 25.9143C231.029 27.3718 230.717 28.9799 230.717 30.7409C230.717 32.502 231.017 34.1226 231.619 35.6002C232.219 37.0803 233.071 38.3622 234.175 39.4485C235.279 40.5372 236.585 41.3801 238.092 41.9772C239.6 42.5742 241.261 42.8753 243.073 42.8753C244.886 42.8753 246.514 42.5768 248.021 41.9772C249.529 41.3801 250.834 40.5372 251.938 39.4485C253.043 38.3622 253.895 37.0778 254.494 35.6002C255.094 34.1226 255.397 32.502 255.397 30.7409C255.397 28.9799 255.089 27.3718 254.479 25.9143C253.867 24.4568 253.005 23.1974 251.891 22.1312H251.893ZM248.732 34.3158C248.195 35.3493 247.442 36.1596 246.471 36.7466C245.498 37.3337 244.369 37.6272 243.078 37.6272C241.788 37.6272 240.626 37.3337 239.653 36.7466C238.68 36.1596 237.926 35.3493 237.392 34.3158C236.857 33.2822 236.587 32.0931 236.587 30.7434C236.587 29.3938 236.855 28.2047 237.392 27.1711C237.926 26.1375 238.68 25.3273 239.653 24.7402C240.626 24.1532 241.768 23.8597 243.078 23.8597C244.389 23.8597 245.559 24.1532 246.519 24.7402C247.479 25.3273 248.223 26.1375 248.747 27.1711C249.272 28.2047 249.534 29.3963 249.534 30.7434C249.534 32.0906 249.267 33.2822 248.73 34.3158H248.732Z" fill="white"/>
<path d="M278.539 33.1241C278.234 32.384 277.813 31.7318 277.276 31.1673C276.742 30.6029 276.124 30.1187 275.424 29.7148C274.723 29.3134 273.969 28.9597 273.163 28.6537C272.091 28.2849 271.179 27.9362 270.425 27.6101C269.671 27.2839 269.092 26.9252 268.688 26.5338C268.282 26.1425 268.081 25.6859 268.081 25.1641C268.081 24.6423 268.288 24.246 268.703 23.9073C269.119 23.5711 269.719 23.403 270.506 23.403C271.096 23.403 271.648 23.5159 272.162 23.7442C272.676 23.9725 273.145 24.2886 273.571 24.69C273.997 25.0914 274.375 25.5655 274.703 26.1099L278.93 23.7618C278.537 22.9791 277.967 22.2064 277.226 21.4463C276.482 20.6862 275.55 20.054 274.423 19.5548C273.296 19.0556 271.97 18.8047 270.44 18.8047C268.91 18.8047 267.604 19.0606 266.392 19.5723C265.179 20.0841 264.217 20.8267 263.508 21.8075C262.797 22.7859 262.442 23.9499 262.442 25.2971C262.442 26.4285 262.649 27.3893 263.065 28.1845C263.481 28.9798 264.005 29.6521 264.638 30.2065C265.27 30.7609 265.943 31.2125 266.654 31.5612C267.365 31.9099 267.993 32.1808 268.54 32.3765C269.654 32.7904 270.549 33.1592 271.227 33.4853C271.905 33.8114 272.396 34.1551 272.701 34.5139C273.006 34.8726 273.16 35.3467 273.16 35.9338C273.16 36.6287 272.898 37.1781 272.374 37.582C271.849 37.9858 271.181 38.1865 270.375 38.1865C269.608 38.1865 268.882 38.0235 268.194 37.6974C267.506 37.3712 266.871 36.9046 266.294 36.295C265.714 35.6854 265.195 34.9679 264.736 34.1426L260.869 36.9147C261.393 38.0034 262.124 39.0019 263.065 39.915C264.005 40.8282 265.114 41.5506 266.392 42.085C267.67 42.6168 269.051 42.8852 270.539 42.8852C271.61 42.8852 272.653 42.7272 273.669 42.4111C274.685 42.095 275.592 41.6334 276.389 41.0238C277.186 40.4142 277.821 39.6591 278.29 38.756C278.758 37.8529 278.995 36.8269 278.995 35.6729C278.995 34.7171 278.842 33.8691 278.537 33.1291L278.539 33.1241Z" fill="white"/>
<path d="M69.8351 51.4766V59.0452H68V51.4766H69.8351ZM68.5092 54.2336H74.2564V55.8767H68.5092V54.2336ZM74.942 51.4766V59.0452H73.1069V51.4766H74.942Z" fill="white"/>
<path d="M81.0134 51.4766V59.0452H79.2539V51.4766H81.0134ZM80.4689 51.4766H84.3028V52.9792H80.4689V51.4766ZM80.4689 54.3314H84.0861V55.8015H80.4689V54.3314ZM80.4689 57.5425H84.3028V59.0452H80.4689V57.5425Z" fill="white"/>
<path d="M90.6392 56.6997L90.7249 57.0985L89.7796 59.0452H87.7051L91.7029 51L95.7108 59.0452H93.6262L92.7137 57.1738L92.7792 56.7097L91.7029 54.2562L90.6392 56.6997ZM89.8477 56.1904H93.6186L93.7371 57.5852H89.7166L89.8477 56.1904Z" fill="white"/>
<path d="M97.7012 51.4766H103.721V53.1097H101.623V59.0452H99.7883V53.1097H97.7037V51.4766H97.7012Z" fill="white"/>
<path d="M109.139 51.4766V59.0452H107.271V51.4766H109.139Z" fill="white"/>
<path d="M120.482 51.4765V59.4239L115.224 54.7854V59.0451H113.465V51.0977L118.713 55.7362V51.4765H120.485H120.482Z" fill="white"/>
<path d="M128.576 54.9037H132.422C132.457 55.5083 132.397 56.0752 132.238 56.6021C132.079 57.1289 131.832 57.593 131.5 57.9969C131.167 58.4008 130.751 58.7168 130.249 58.9426C129.75 59.1684 129.178 59.2838 128.533 59.2838C127.925 59.2838 127.366 59.1885 126.859 58.9978C126.352 58.8072 125.914 58.5337 125.546 58.175C125.175 57.8187 124.888 57.3923 124.681 56.8981C124.474 56.4039 124.371 55.8595 124.371 55.2599C124.371 54.6604 124.477 54.1185 124.686 53.6318C124.895 53.1451 125.193 52.7287 125.576 52.3825C125.959 52.0363 126.408 51.7704 126.922 51.5822C127.436 51.3941 127.993 51.3013 128.596 51.3013C129.13 51.3013 129.614 51.3765 130.04 51.527C130.466 51.6776 130.847 51.8883 131.174 52.1592C131.505 52.4302 131.789 52.7412 132.026 53.095L130.398 53.9379C130.224 53.6343 129.99 53.3835 129.697 53.1853C129.405 52.9871 129.037 52.8867 128.596 52.8867C128.155 52.8867 127.782 52.9796 127.434 53.1677C127.086 53.3559 126.809 53.6243 126.602 53.973C126.395 54.3217 126.292 54.7507 126.292 55.2549C126.292 55.7591 126.393 56.1831 126.592 56.5469C126.791 56.9106 127.063 57.1916 127.406 57.3898C127.749 57.588 128.147 57.6883 128.596 57.6883C128.871 57.6883 129.12 57.6532 129.344 57.5854C129.569 57.5177 129.76 57.4199 129.919 57.2944C130.078 57.169 130.214 57.021 130.327 56.8504C130.438 56.6823 130.529 56.4992 130.595 56.3035H128.573V54.8987L128.576 54.9037Z" fill="white"/>
<path d="M143.464 54.4669C143.3 54.2762 143.167 54.0756 143.063 53.8673C142.957 53.6591 142.905 53.4233 142.905 53.1649C142.905 52.8538 142.998 52.5553 143.187 52.2668C143.376 51.9783 143.646 51.745 143.996 51.5644C144.346 51.3838 144.762 51.2935 145.239 51.2935C145.715 51.2935 146.118 51.3838 146.444 51.5644C146.769 51.745 147.016 51.9733 147.182 52.2518C147.348 52.5302 147.432 52.8187 147.432 53.1223C147.432 53.3756 147.391 53.5914 147.313 53.777C147.235 53.9627 147.114 54.1333 146.955 54.2963C146.796 54.4594 146.6 54.6199 146.368 54.783C146.136 54.9461 145.869 55.1267 145.564 55.3299C145.375 55.4528 145.171 55.5632 144.949 55.6585C144.727 55.7564 144.523 55.8567 144.334 55.9621C144.145 56.0674 143.991 56.1878 143.867 56.3283C143.744 56.4688 143.683 56.6519 143.683 56.8752C143.683 57.0483 143.729 57.2064 143.819 57.3519C143.91 57.4974 144.041 57.6102 144.21 57.693C144.379 57.7758 144.588 57.8185 144.835 57.8185C145.148 57.8185 145.453 57.7532 145.753 57.6228C146.053 57.4923 146.345 57.3167 146.628 57.0935C146.91 56.8702 147.177 56.6093 147.427 56.3158C147.676 56.0198 147.913 55.7037 148.137 55.365L149.234 56.2079C148.994 56.5466 148.72 56.8928 148.407 57.2465C148.095 57.6002 147.747 57.9213 147.364 58.2148C146.98 58.5058 146.557 58.7442 146.098 58.9223C145.637 59.1029 145.143 59.1932 144.616 59.1932C144.13 59.1932 143.686 59.1054 143.285 58.9348C142.884 58.7617 142.562 58.5134 142.325 58.1897C142.085 57.8661 141.967 57.4798 141.967 57.0333C141.967 56.6871 142.035 56.3885 142.173 56.1402C142.31 55.8918 142.489 55.6786 142.705 55.503C142.922 55.3274 143.157 55.1794 143.406 55.0589C143.656 54.941 143.895 54.8382 144.125 54.7504C144.351 54.6626 144.543 54.5848 144.694 54.5121C145.1 54.3164 145.41 54.1132 145.624 53.8949C145.839 53.6792 145.944 53.4735 145.944 53.2778C145.944 53.1624 145.914 53.0545 145.856 52.9542C145.798 52.8538 145.718 52.7685 145.612 52.7008C145.506 52.6331 145.377 52.598 145.226 52.598C144.979 52.598 144.795 52.6682 144.671 52.8087C144.548 52.9492 144.487 53.1072 144.487 53.2778C144.487 53.486 144.583 53.7018 144.775 53.9225C144.966 54.1433 145.208 54.4117 145.498 54.7278L149.519 59.0527H147.638L143.956 55.0313C143.789 54.8507 143.625 54.6651 143.462 54.4744L143.464 54.4669Z" fill="white"/>
<path d="M161.082 56.4564C161.291 56.7926 161.568 57.046 161.913 57.2191C162.259 57.3921 162.637 57.4774 163.048 57.4774C163.411 57.4774 163.728 57.4298 164.003 57.337C164.278 57.2441 164.525 57.1212 164.742 56.9707C164.958 56.8202 165.15 56.6571 165.316 56.484V58.4508C165.011 58.6891 164.679 58.8773 164.318 59.0127C163.955 59.1507 163.496 59.2184 162.939 59.2184C162.332 59.2184 161.77 59.1256 161.255 58.9375C160.741 58.7493 160.3 58.4809 159.93 58.1272C159.562 57.7735 159.274 57.357 159.073 56.8729C158.871 56.3912 158.768 55.8518 158.768 55.2623C158.768 54.6728 158.868 54.1334 159.073 53.6517C159.277 53.1701 159.562 52.7511 159.93 52.3974C160.3 52.0437 160.741 51.7753 161.255 51.5871C161.77 51.399 162.332 51.3062 162.939 51.3062C163.496 51.3062 163.958 51.3739 164.318 51.5119C164.681 51.6498 165.014 51.8355 165.316 52.0738V54.0406C165.15 53.8675 164.958 53.7044 164.742 53.5489C164.525 53.3934 164.278 53.2704 164.003 53.1826C163.728 53.0948 163.408 53.0472 163.048 53.0472C162.634 53.0472 162.256 53.135 161.913 53.3055C161.571 53.4761 161.293 53.732 161.082 54.0632C160.87 54.3943 160.766 54.7957 160.766 55.2623C160.766 55.7289 160.872 56.1228 161.082 56.4564Z" fill="white"/>
<path d="M169.407 53.6618C169.614 53.1776 169.901 52.7612 170.272 52.4075C170.642 52.0537 171.076 51.7828 171.575 51.5921C172.074 51.4015 172.613 51.3062 173.193 51.3062C173.773 51.3062 174.32 51.4015 174.817 51.5921C175.313 51.7828 175.747 52.0562 176.115 52.4075C176.485 52.7612 176.77 53.1776 176.974 53.6618C177.176 54.146 177.279 54.6778 177.279 55.2623C177.279 55.8468 177.178 56.3837 176.979 56.8729C176.78 57.362 176.498 57.7885 176.132 58.1498C175.767 58.511 175.333 58.7895 174.834 58.9877C174.335 59.1858 173.788 59.2837 173.193 59.2837C172.598 59.2837 172.041 59.1858 171.542 58.9877C171.043 58.7895 170.609 58.511 170.244 58.1498C169.878 57.7885 169.596 57.3646 169.397 56.8729C169.198 56.3837 169.1 55.8468 169.1 55.2623C169.1 54.6778 169.203 54.146 169.41 53.6618H169.407ZM171.308 56.4439C171.484 56.7876 171.736 57.056 172.056 57.2492C172.379 57.4448 172.757 57.5402 173.191 57.5402C173.624 57.5402 173.992 57.4423 174.315 57.2492C174.638 57.0535 174.887 56.7851 175.064 56.4439C175.24 56.1027 175.331 55.7063 175.331 55.2598C175.331 54.8133 175.243 54.4194 175.071 54.0757C174.897 53.7345 174.65 53.4636 174.333 53.2704C174.015 53.0748 173.634 52.9794 173.191 52.9794C172.747 52.9794 172.377 53.0773 172.056 53.2704C171.734 53.4661 171.484 53.7345 171.308 54.0757C171.131 54.4169 171.041 54.8133 171.041 55.2598C171.041 55.7063 171.129 56.1027 171.308 56.4439Z" fill="white"/>
<path d="M181.042 53.6618C181.249 53.1776 181.536 52.7612 181.907 52.4075C182.277 52.0537 182.711 51.7828 183.21 51.5921C183.709 51.4015 184.248 51.3062 184.828 51.3062C185.408 51.3062 185.955 51.4015 186.451 51.5921C186.948 51.7828 187.381 52.0562 187.749 52.4075C188.12 52.7612 188.405 53.1776 188.609 53.6618C188.811 54.146 188.914 54.6778 188.914 55.2623C188.914 55.8468 188.813 56.3837 188.614 56.8729C188.415 57.362 188.133 57.7885 187.767 58.1498C187.402 58.511 186.968 58.7895 186.469 58.9877C185.97 59.1858 185.423 59.2837 184.828 59.2837C184.233 59.2837 183.676 59.1858 183.177 58.9877C182.678 58.7895 182.244 58.511 181.879 58.1498C181.513 57.7885 181.231 57.3646 181.032 56.8729C180.833 56.3837 180.734 55.8468 180.734 55.2623C180.734 54.6778 180.838 54.146 181.044 53.6618H181.042ZM182.943 56.4439C183.119 56.7876 183.371 57.056 183.691 57.2492C184.014 57.4448 184.392 57.5402 184.825 57.5402C185.259 57.5402 185.627 57.4423 185.95 57.2492C186.272 57.0535 186.522 56.7851 186.698 56.4439C186.875 56.1027 186.966 55.7063 186.966 55.2598C186.966 54.8133 186.877 54.4194 186.706 54.0757C186.532 53.7345 186.285 53.4636 185.967 53.2704C185.65 53.0748 185.269 52.9794 184.825 52.9794C184.382 52.9794 184.011 53.0773 183.691 53.2704C183.369 53.4661 183.119 53.7345 182.943 54.0757C182.766 54.4169 182.675 54.8133 182.675 55.2598C182.675 55.7063 182.764 56.1027 182.943 56.4439Z" fill="white"/>
<path d="M194.64 51.4766V57.4773H197.692V59.0452H192.805V51.4766H194.64Z" fill="white"/>
<path d="M203.124 51.4766V59.0452H201.256V51.4766H203.124Z" fill="white"/>
<path d="M214.465 51.4765V59.4239L209.207 54.7854V59.0451H207.447V51.0977L212.695 55.7362V51.4765H214.467H214.465Z" fill="white"/>
<path d="M222.559 54.9037H226.405C226.44 55.5083 226.38 56.0752 226.221 56.6021C226.062 57.1289 225.815 57.593 225.483 57.9969C225.15 58.4008 224.734 58.7168 224.232 58.9426C223.733 59.1684 223.161 59.2838 222.516 59.2838C221.908 59.2838 221.349 59.1885 220.842 58.9978C220.335 58.8072 219.897 58.5337 219.526 58.175C219.158 57.8187 218.868 57.3923 218.662 56.8981C218.455 56.4039 218.352 55.8595 218.352 55.2599C218.352 54.6604 218.457 54.1185 218.667 53.6318C218.876 53.1451 219.173 52.7287 219.556 52.3825C219.94 52.0363 220.388 51.7704 220.902 51.5822C221.417 51.3941 221.974 51.3013 222.576 51.3013C223.113 51.3013 223.595 51.3765 224.021 51.527C224.447 51.6776 224.827 51.8883 225.155 52.1592C225.483 52.4302 225.77 52.7412 226.007 53.095L224.379 53.9379C224.205 53.6343 223.97 53.3835 223.678 53.1853C223.385 52.9871 223.017 52.8867 222.576 52.8867C222.135 52.8867 221.762 52.9796 221.414 53.1677C221.066 53.3559 220.789 53.6243 220.582 53.973C220.376 54.3217 220.272 54.7507 220.272 55.2549C220.272 55.7591 220.371 56.1831 220.572 56.5469C220.771 56.9106 221.044 57.1916 221.386 57.3898C221.729 57.588 222.128 57.6883 222.576 57.6883C222.851 57.6883 223.101 57.6532 223.325 57.5854C223.549 57.5177 223.741 57.4199 223.9 57.2944C224.058 57.169 224.195 57.021 224.308 56.8504C224.419 56.6823 224.51 56.4992 224.575 56.3035H222.554V54.8987L222.559 54.9037Z" fill="white"/>
</g>
<defs>
<clipPath id="clip0_89_559">
<rect width="279" height="79" fill="white"/>
</clipPath>
</defs>
</svg>
