<?xml version="1.0" encoding="UTF-8"?>
<svg id="Layer_1" xmlns="http://www.w3.org/2000/svg" version="1.1" viewBox="0 0 841.89 595.28">
  <!-- Generator: Adobe Illustrator 29.4.0, SVG Export Plug-In . SVG Version: 2.1.0 Build 152)  -->
  <defs>
    <style>
      .st0, .st1 {
        fill: #2d8b57;
      }

      .st2, .st1 {
        fill-rule: evenodd;
      }

      .st2, .st3 {
        fill: #2a358a;
      }
    </style>
  </defs>
  <path class="st2" d="M400.83,256.35h15.95c1.5,0,2.71,1.21,2.71,2.71v15.96c0,1.5-1.21,2.71-2.71,2.71h-15.95c-1.5,0-2.71-1.21-2.71-2.71v-15.96c0-1.5,1.21-2.71,2.71-2.71ZM419.49,286.05v15.96c0,1.5-1.21,2.71-2.71,2.71h-15.95c-1.5,0-2.71-1.21-2.71-2.71v-15.96c0-1.5,1.21-2.71,2.71-2.71h15.95c1.5,0,2.71,1.21,2.71,2.71ZM427.82,256.35h15.95c1.5,0,2.71,1.21,2.71,2.71v15.96c0,1.5-1.21,2.71-2.71,2.71h-15.95c-1.5,0-2.71-1.21-2.71-2.71v-15.96c0-1.5,1.21-2.71,2.71-2.71ZM446.48,286.05v15.96c0,1.5-1.21,2.71-2.71,2.71h-15.95c-1.5,0-2.71-1.21-2.71-2.71v-15.96c0-1.5,1.21-2.71,2.71-2.71h15.95c1.5,0,2.71,1.21,2.71,2.71Z"/>
  <path class="st1" d="M422.34,182.51l-49,45.04-5.57,5.11c-2.2,5.61-4.19,11.33-5.7,17.03-1.97,7.51-2.42,15.27-1.53,22.9h1.02l11.78-10.83,49-45.04,49,45.04,20.91,20.16c-.31,1.05-.65,2.11-.99,3.15-5.21,16.52-16.49,30.83-32.11,39.67l-.06.04c-28.94,17.24-66.09,12.73-90.07-11.31,24.6,55.69,83.25,62.65,126.22,29.05,53.02-41.44,40.26-134.12-14.31-188.13l1.32,14.94c-32.5-40.41-54.98-74.17-44.43-110.22.37-1.41.81-2.8,1.32-4.16-48.43,42.48-10.72,93.13,31.8,144.68,8.82,10.21,15.33,22.1,19.22,34.84h0c1.71,4.42,2.98,8.9,3.82,13.42l-14.66-13.17v-22.29h-24.43l-32.55-29.91Z"/>
  <path class="st2" d="M385.95,180.02c19.15-29.08,31-63.82,10.96-104.09-.82,97.87-131.6,126.68-67.81,246.47-8.54-18.22-11.28-65.39,8.32-87.87-23.23,49.11,7.25,135.91,88.63,135.32-63.25-8.94-86.73-74.73-75.62-114.03,7.58-26.82,29.38-66.44,35.53-75.8h0Z"/>
  <path class="st3" d="M95.72,446.12c2.04,3.27,4.73,5.75,8.08,7.44,3.34,1.69,7.02,2.53,11.03,2.53,3.52,0,6.62-.46,9.29-1.37,2.67-.91,5.07-2.11,7.18-3.59,2.11-1.48,3.98-3.06,5.6-4.75v19.22c-2.96,2.32-6.2,4.15-9.71,5.49-3.52,1.34-7.99,2.01-13.41,2.01-5.91,0-11.37-.92-16.37-2.75-5-1.83-9.29-4.47-12.88-7.92-3.59-3.45-6.37-7.53-8.34-12.25-1.97-4.71-2.96-9.96-2.96-15.73s.98-11.02,2.96-15.73c1.97-4.71,4.75-8.8,8.34-12.25,3.59-3.45,7.88-6.09,12.88-7.92,5-1.83,10.45-2.75,16.37-2.75,5.42,0,9.89.67,13.41,2.01,3.52,1.34,6.76,3.17,9.71,5.49v19.22c-1.62-1.69-3.48-3.29-5.6-4.8-2.11-1.51-4.51-2.71-7.18-3.59-2.68-.88-5.77-1.32-9.29-1.32-4.01,0-7.69.84-11.03,2.53-3.34,1.69-6.04,4.15-8.08,7.39-2.04,3.24-3.06,7.15-3.06,11.72s1.02,8.39,3.06,11.67Z"/>
  <path class="st3" d="M160.82,418.82c2.01-4.71,4.8-8.8,8.39-12.25,3.59-3.45,7.81-6.11,12.67-7.97,4.86-1.86,10.1-2.8,15.73-2.8s10.96.93,15.79,2.8c4.82,1.87,9.03,4.52,12.62,7.97,3.59,3.45,6.37,7.53,8.34,12.25,1.97,4.72,2.96,9.93,2.96,15.63s-.97,10.95-2.9,15.73c-1.94,4.79-4.68,8.94-8.24,12.46-3.56,3.52-7.76,6.25-12.62,8.18-4.86,1.94-10.17,2.9-15.94,2.9s-11.19-.97-16.05-2.9c-4.86-1.93-9.06-4.66-12.62-8.18-3.56-3.52-6.3-7.67-8.24-12.46-1.94-4.79-2.9-10.03-2.9-15.73s1-10.91,3.01-15.63ZM179.3,446.01c1.72,3.34,4.15,5.97,7.29,7.87,3.13,1.9,6.81,2.85,11.03,2.85s7.8-.95,10.93-2.85c3.13-1.9,5.56-4.52,7.29-7.87,1.72-3.34,2.59-7.2,2.59-11.56s-.84-8.22-2.53-11.56c-1.69-3.34-4.08-5.97-7.18-7.87-3.1-1.9-6.79-2.85-11.09-2.85s-7.9.95-11.03,2.85c-3.13,1.9-5.56,4.52-7.29,7.87-1.73,3.34-2.59,7.2-2.59,11.56s.86,8.22,2.59,11.56Z"/>
  <path class="st3" d="M254.32,397.49h57.97l-34.95,58.6h31.15v15.31h-59.24l34.42-57.97h-29.35v-15.94Z"/>
  <path class="st3" d="M397.29,397.49l-25.87,43.82v30.09h-18.16v-29.99l-25.87-43.93h20.48l14.47,27.77,14.47-27.77h20.49Z"/>
  <g>
    <path class="st3" d="M506.37,434.5c-1.84-1.15-3.83-2.08-5.95-2.8,3.01-1.38,5.48-3.2,7.38-5.48,2.29-2.75,3.43-6.05,3.43-9.93,0-4.22-1.14-7.72-3.43-10.51-2.29-2.78-5.39-4.86-9.29-6.23-3.91-1.37-8.43-2.06-13.57-2.06h-27.14v73.92h28.93c5.84,0,10.91-.72,15.21-2.17,4.29-1.44,7.62-3.68,9.98-6.71,2.36-3.03,3.54-7,3.54-11.93,0-3.73-.83-6.92-2.48-9.56-1.65-2.64-3.85-4.82-6.6-6.55ZM483.03,411.33c3.03,0,5.4.63,7.13,1.9,1.72,1.27,2.59,3.17,2.59,5.7,0,1.69-.39,3.12-1.16,4.28-.78,1.16-1.88,2.06-3.33,2.69-1.44.63-3.19.95-5.23.95h-7.39v-15.52h7.39ZM495.33,453.72c-1.09,1.37-2.55,2.36-4.38,2.96-1.83.6-3.91.9-6.23.9h-9.08v-18.27h9.08c1.76,0,3.36.16,4.8.48,1.44.32,2.73.83,3.85,1.53,1.12.7,2.01,1.62,2.64,2.75.63,1.13.95,2.46.95,4.01,0,2.39-.55,4.28-1.64,5.65Z"/>
    <path class="st3" d="M581.23,442.69c4.22-2.04,7.43-4.87,9.61-8.5,2.18-3.62,3.27-7.8,3.27-12.51s-1.09-8.99-3.27-12.62c-2.18-3.62-5.39-6.46-9.61-8.5-4.22-2.04-9.5-3.06-15.84-3.06h-26.93v73.92h17.85v-25.66h5.38l15.95,25.66h20.91l-19.27-27.89c.67-.26,1.33-.53,1.95-.83ZM556.31,412.59h7.81c2.39,0,4.45.39,6.18,1.16,1.72.78,3.04,1.88,3.96,3.33.91,1.44,1.37,3.19,1.37,5.23s-.46,3.78-1.37,5.23c-.92,1.44-2.24,2.53-3.96,3.27-1.73.74-3.79,1.11-6.18,1.11h-7.81v-19.32Z"/>
    <path class="st3" d="M681.34,406.57c-3.59-3.45-7.8-6.11-12.62-7.97-4.82-1.86-10.08-2.8-15.79-2.8s-10.88.93-15.73,2.8c-4.86,1.87-9.08,4.52-12.67,7.97s-6.39,7.53-8.39,12.25c-2.01,4.72-3.01,9.93-3.01,15.63s.97,10.95,2.9,15.73c1.94,4.79,4.68,8.94,8.24,12.46,3.55,3.52,7.76,6.25,12.62,8.18,4.86,1.94,10.21,2.9,16.05,2.9s11.09-.97,15.94-2.9c4.86-1.93,9.06-4.66,12.62-8.18,3.55-3.52,6.3-7.67,8.24-12.46,1.94-4.79,2.9-10.03,2.9-15.73s-.99-10.91-2.96-15.63c-1.97-4.71-4.75-8.8-8.34-12.25ZM671.15,446.01c-1.73,3.34-4.16,5.97-7.29,7.87-3.13,1.9-6.78,2.85-10.93,2.85s-7.9-.95-11.04-2.85c-3.13-1.9-5.56-4.52-7.29-7.87-1.73-3.34-2.59-7.2-2.59-11.56s.86-8.22,2.59-11.56c1.72-3.34,4.15-5.97,7.29-7.87,3.13-1.9,6.81-2.85,11.04-2.85s7.99.95,11.09,2.85c3.1,1.9,5.49,4.52,7.18,7.87,1.69,3.34,2.53,7.2,2.53,11.56s-.86,8.22-2.59,11.56Z"/>
    <path class="st3" d="M767.18,442.16c-.99-2.39-2.34-4.5-4.07-6.34-1.73-1.83-3.71-3.4-5.97-4.7-2.25-1.3-4.68-2.45-7.29-3.43-3.45-1.2-6.39-2.32-8.82-3.38-2.43-1.06-4.29-2.22-5.6-3.48-1.3-1.27-1.95-2.75-1.95-4.44s.67-2.97,2.01-4.07c1.34-1.09,3.27-1.64,5.81-1.64,1.9,0,3.68.37,5.33,1.11,1.65.74,3.17,1.76,4.54,3.06,1.37,1.3,2.59,2.83,3.64,4.59l13.62-7.6c-1.27-2.53-3.1-5.03-5.49-7.5-2.39-2.46-5.4-4.5-9.03-6.12-3.63-1.62-7.9-2.43-12.83-2.43s-9.13.83-13.04,2.48c-3.91,1.65-7.01,4.06-9.29,7.23-2.29,3.17-3.43,6.93-3.43,11.3,0,3.66.67,6.78,2.01,9.34,1.34,2.57,3.03,4.75,5.07,6.55,2.04,1.79,4.21,3.26,6.49,4.38,2.29,1.13,4.31,2.01,6.07,2.64,3.59,1.34,6.48,2.53,8.66,3.59,2.18,1.06,3.76,2.17,4.75,3.33.99,1.16,1.48,2.69,1.48,4.59,0,2.25-.84,4.03-2.53,5.33-1.69,1.3-3.84,1.95-6.44,1.95-2.46,0-4.8-.53-7.02-1.58-2.22-1.06-4.26-2.57-6.12-4.54-1.87-1.97-3.54-4.29-5.02-6.97l-12.46,8.97c1.69,3.52,4.05,6.76,7.08,9.71,3.03,2.96,6.6,5.3,10.72,7.02,4.12,1.72,8.57,2.59,13.36,2.59,3.45,0,6.81-.51,10.08-1.53s6.19-2.52,8.76-4.49c2.57-1.97,4.61-4.42,6.12-7.34,1.51-2.92,2.27-6.25,2.27-9.98,0-3.1-.49-5.84-1.48-8.24Z"/>
  </g>
  <g>
    <path class="st0" d="M171.68,487.69v24.5h-5.92v-24.5h5.92ZM167.41,496.61h18.51v5.32h-18.51v-5.32ZM188.13,487.69v24.5h-5.92v-24.5h5.92Z"/>
    <path class="st0" d="M207.69,487.69v24.5h-5.67v-24.5h5.67ZM205.94,487.69h12.36v4.87h-12.36v-4.87ZM205.94,496.93h11.66v4.76h-11.66v-4.76ZM205.94,507.32h12.36v4.87h-12.36v-4.87Z"/>
    <path class="st0" d="M238.7,504.59l.28,1.29-3.04,6.3h-6.68l12.88-26.04,12.92,26.04h-6.72l-2.94-6.05.21-1.5-3.46-7.95-3.43,7.91ZM236.15,502.95h12.15l.38,4.52h-12.95l.42-4.52Z"/>
    <path class="st0" d="M261.45,487.69h19.39v5.29h-6.75v19.21h-5.92v-19.21h-6.72v-5.29Z"/>
    <path class="st0" d="M298.31,487.69v24.5h-6.02v-24.5h6.02Z"/>
    <path class="st0" d="M334.85,487.69v25.72l-16.94-15.01v13.79h-5.67v-25.72l16.91,15.01v-13.79h5.71Z"/>
    <path class="st0" d="M360.92,498.78h12.39c.12,1.96-.08,3.79-.59,5.5-.51,1.7-1.31,3.21-2.38,4.52s-2.42,2.33-4.03,3.06c-1.61.73-3.45,1.1-5.53,1.1-1.96,0-3.76-.31-5.39-.93-1.63-.62-3.04-1.5-4.23-2.66-1.19-1.16-2.12-2.53-2.78-4.13s-1-3.37-1-5.3.34-3.69,1.01-5.27,1.63-2.92,2.87-4.04c1.24-1.12,2.68-1.98,4.34-2.59,1.66-.61,3.45-.91,5.39-.91,1.73,0,3.28.24,4.65.73s2.6,1.17,3.66,2.05c1.06.88,1.98,1.88,2.75,3.03l-5.25,2.73c-.56-.98-1.31-1.79-2.26-2.43-.94-.64-2.13-.96-3.55-.96s-2.62.3-3.75.91-2.01,1.48-2.68,2.61-1,2.51-1,4.15.32,3,.96,4.18c.64,1.18,1.52,2.09,2.62,2.73,1.11.64,2.39.96,3.83.96.89,0,1.69-.11,2.42-.33.72-.22,1.34-.54,1.85-.95.51-.41.95-.89,1.31-1.44.36-.55.65-1.14.86-1.77h-6.51v-4.55Z"/>
    <path class="st0" d="M408.89,497.37c-.53-.62-.96-1.27-1.29-1.94-.34-.68-.51-1.44-.51-2.28,0-1,.3-1.97.91-2.91.61-.93,1.48-1.69,2.61-2.27,1.13-.58,2.47-.88,4.01-.88s2.83.29,3.89.88c1.05.58,1.84,1.32,2.38,2.22.54.9.8,1.84.8,2.82,0,.82-.13,1.52-.38,2.12s-.64,1.16-1.16,1.68c-.51.53-1.14,1.05-1.89,1.58-.75.53-1.61,1.11-2.59,1.77-.61.4-1.27.75-1.98,1.07-.71.32-1.37.64-1.98.98-.61.34-1.11.73-1.5,1.19-.4.46-.6,1.04-.6,1.77,0,.56.15,1.07.44,1.54s.71.83,1.26,1.1c.55.27,1.22.4,2.01.4,1,0,1.99-.21,2.96-.63.97-.42,1.91-.99,2.82-1.71.91-.72,1.77-1.56,2.57-2.52.81-.96,1.57-1.98,2.29-3.08l3.54,2.73c-.77,1.1-1.66,2.22-2.66,3.36-1,1.14-2.12,2.19-3.36,3.13-1.24.95-2.6,1.71-4.08,2.29-1.48.58-3.08.88-4.78.88-1.56,0-2.99-.28-4.29-.84-1.29-.56-2.33-1.37-3.1-2.42-.77-1.05-1.15-2.3-1.15-3.75,0-1.12.22-2.08.67-2.89.44-.8,1.01-1.49,1.71-2.06.7-.57,1.45-1.05,2.26-1.44.81-.38,1.58-.72,2.31-1,.73-.28,1.35-.54,1.84-.77,1.31-.63,2.3-1.29,2.99-2,.69-.7,1.03-1.36,1.03-2,0-.37-.09-.72-.28-1.05-.19-.33-.45-.6-.79-.82-.34-.22-.75-.33-1.24-.33-.79,0-1.39.23-1.79.68-.4.46-.6.96-.6,1.52,0,.68.31,1.37.93,2.08s1.39,1.58,2.33,2.61l12.95,14h-6.05l-11.87-13.02c-.54-.58-1.07-1.18-1.59-1.8Z"/>
    <path class="st0" d="M465.64,503.81c.68,1.08,1.57,1.91,2.68,2.47s2.33.84,3.66.84c1.17,0,2.19-.15,3.08-.46.89-.3,1.68-.7,2.38-1.19.7-.49,1.32-1.02,1.85-1.58v6.37c-.98.77-2.05,1.38-3.22,1.82-1.17.44-2.65.67-4.45.67-1.96,0-3.77-.3-5.42-.91-1.66-.61-3.08-1.48-4.27-2.62-1.19-1.14-2.11-2.5-2.76-4.06-.65-1.56-.98-3.3-.98-5.21s.33-3.65.98-5.21,1.58-2.92,2.76-4.06c1.19-1.14,2.61-2.02,4.27-2.62,1.66-.61,3.46-.91,5.42-.91,1.8,0,3.28.22,4.45.67,1.17.44,2.24,1.05,3.22,1.82v6.37c-.54-.56-1.16-1.09-1.85-1.59-.7-.5-1.49-.9-2.38-1.19s-1.91-.44-3.08-.44c-1.33,0-2.55.28-3.66.84s-2,1.38-2.68,2.45-1.01,2.37-1.01,3.88.34,2.78,1.01,3.87Z"/>
    <path class="st0" d="M492.47,494.76c.67-1.56,1.59-2.92,2.78-4.06,1.19-1.14,2.59-2.02,4.2-2.64,1.61-.62,3.35-.93,5.21-.93s3.63.31,5.23.93c1.6.62,2.99,1.5,4.18,2.64,1.19,1.14,2.11,2.5,2.77,4.06.65,1.56.98,3.29.98,5.18s-.32,3.63-.96,5.21c-.64,1.59-1.55,2.96-2.73,4.13-1.18,1.17-2.57,2.07-4.18,2.71s-3.37.96-5.29.96-3.71-.32-5.32-.96c-1.61-.64-3-1.55-4.18-2.71-1.18-1.17-2.09-2.54-2.73-4.13-.64-1.59-.96-3.33-.96-5.21s.33-3.62,1-5.18ZM498.59,503.77c.57,1.11,1.38,1.98,2.42,2.61,1.04.63,2.26.94,3.66.94s2.58-.31,3.62-.94c1.04-.63,1.84-1.5,2.42-2.61.57-1.11.86-2.38.86-3.83s-.28-2.72-.84-3.83c-.56-1.11-1.35-1.98-2.38-2.61-1.03-.63-2.25-.94-3.67-.94s-2.62.31-3.66.94c-1.04.63-1.84,1.5-2.42,2.61-.57,1.11-.86,2.39-.86,3.83s.29,2.72.86,3.83Z"/>
    <path class="st0" d="M529.95,494.76c.67-1.56,1.59-2.92,2.78-4.06,1.19-1.14,2.59-2.02,4.2-2.64,1.61-.62,3.35-.93,5.21-.93s3.63.31,5.23.93c1.6.62,2.99,1.5,4.18,2.64,1.19,1.14,2.11,2.5,2.77,4.06.65,1.56.98,3.29.98,5.18s-.32,3.63-.96,5.21c-.64,1.59-1.55,2.96-2.73,4.13-1.18,1.17-2.57,2.07-4.18,2.71s-3.37.96-5.29.96-3.71-.32-5.32-.96c-1.61-.64-3-1.55-4.18-2.71-1.18-1.17-2.09-2.54-2.73-4.13-.64-1.59-.96-3.33-.96-5.21s.33-3.62,1-5.18ZM536.08,503.77c.57,1.11,1.38,1.98,2.42,2.61,1.04.63,2.26.94,3.66.94s2.58-.31,3.62-.94c1.04-.63,1.84-1.5,2.42-2.61.57-1.11.86-2.38.86-3.83s-.28-2.72-.84-3.83c-.56-1.11-1.35-1.98-2.38-2.61-1.03-.63-2.25-.94-3.67-.94s-2.62.31-3.66.94c-1.04.63-1.84,1.5-2.42,2.61-.57,1.11-.86,2.39-.86,3.83s.29,2.72.86,3.83Z"/>
    <path class="st0" d="M573.75,487.69v19.42h9.83v5.08h-15.75v-24.5h5.92Z"/>
    <path class="st0" d="M601.09,487.69v24.5h-6.02v-24.5h6.02Z"/>
    <path class="st0" d="M637.63,487.69v25.72l-16.94-15.01v13.79h-5.67v-25.72l16.91,15.01v-13.79h5.71Z"/>
    <path class="st0" d="M663.71,498.78h12.39c.12,1.96-.08,3.79-.59,5.5-.51,1.7-1.31,3.21-2.38,4.52-1.07,1.31-2.42,2.33-4.03,3.06-1.61.73-3.45,1.1-5.53,1.1-1.96,0-3.76-.31-5.39-.93-1.63-.62-3.04-1.5-4.24-2.66-1.19-1.16-2.12-2.53-2.78-4.13s-1-3.37-1-5.3.34-3.69,1.01-5.27,1.63-2.92,2.87-4.04c1.24-1.12,2.68-1.98,4.34-2.59,1.66-.61,3.45-.91,5.39-.91,1.73,0,3.28.24,4.66.73s2.6,1.17,3.66,2.05,1.98,1.88,2.75,3.03l-5.25,2.73c-.56-.98-1.31-1.79-2.26-2.43s-2.13-.96-3.55-.96-2.62.3-3.75.91c-1.12.61-2.01,1.48-2.68,2.61s-1,2.51-1,4.15.32,3,.96,4.18c.64,1.18,1.52,2.09,2.62,2.73,1.11.64,2.39.96,3.83.96.89,0,1.69-.11,2.42-.33s1.34-.54,1.86-.95c.51-.41.95-.89,1.31-1.44.36-.55.65-1.14.86-1.77h-6.51v-4.55Z"/>
  </g>
</svg>