<svg width="70" height="70" viewBox="0 0 70 70" fill="none" xmlns="http://www.w3.org/2000/svg">
<path d="M56.6312 4.43311H13.3712C10.207 4.43311 10.207 7.22126 10.207 8.41162V20.7974C10.207 22.9913 12.2546 24.7759 14.7712 24.7759H16.7777C17.1642 24.7759 17.4777 24.4624 17.4777 24.0759C17.4777 23.6895 17.1642 23.3759 16.7777 23.3759H14.7712C13.0266 23.3759 11.607 22.2193 11.607 20.7974V18.8697H28.3938C28.7803 18.8697 29.0938 18.5562 29.0938 18.1697C29.0938 17.7832 28.7803 17.4697 28.3938 17.4697H11.613V13.7956H28.3938C28.7803 13.7956 29.0938 13.4821 29.0938 13.0956C29.0938 12.7091 28.7803 12.3956 28.3938 12.3956H11.607V8.41162C11.607 6.43558 12.019 5.83311 13.3712 5.83311H56.6312C57.9829 5.83311 58.3949 6.43558 58.3949 8.41162V12.3956H41.6132C41.2267 12.3956 40.9132 12.7091 40.9132 13.0956C40.9132 13.4821 41.2267 13.7956 41.6132 13.7956H58.394V17.4697H40.7363C40.3499 17.4697 40.0363 17.7832 40.0363 18.1697C40.0363 18.5562 40.3499 18.8697 40.7363 18.8697H58.3949V20.7974C58.3949 22.2193 56.9758 23.3759 55.2313 23.3759H52.2722C51.8857 23.3759 51.5722 23.6895 51.5722 24.0759C51.5722 24.4624 51.8857 24.7759 52.2722 24.7759H55.2313C57.7478 24.7759 59.7949 22.9913 59.7949 20.7974V8.41162C59.7949 7.22126 59.7949 4.43311 56.6312 4.43311Z" fill="#248C59"/>
<path d="M36.6383 15.014C37.6159 15.014 38.4303 14.2234 38.4303 13.2219V9.93657C38.4303 8.9473 37.6276 8.14453 36.6383 8.14453H33.3623C32.373 8.14453 31.5703 8.9473 31.5703 9.93657V13.2219C31.5703 14.2371 32.4141 15.014 33.3623 15.014H36.6383ZM35.005 10.0579C35.8357 10.0579 36.517 10.7392 36.517 11.5792C36.517 12.4193 35.8357 13.1006 35.005 13.1006C34.1649 13.1006 33.4836 12.4193 33.4836 11.5792C33.4836 10.7392 34.1649 10.0579 35.005 10.0579Z" fill="#248C59"/>
<path d="M54.2521 10.8685C55.263 10.8685 56.0824 10.0491 56.0824 9.03827C56.0824 8.02745 55.263 7.20801 54.2521 7.20801C53.2413 7.20801 52.4219 8.02745 52.4219 9.03827C52.4219 10.0491 53.2413 10.8685 54.2521 10.8685Z" fill="#248C59"/>
<path d="M48.3146 10.8685C49.3255 10.8685 50.1449 10.0491 50.1449 9.03827C50.1449 8.02745 49.3255 7.20801 48.3146 7.20801C47.3038 7.20801 46.4844 8.02745 46.4844 9.03827C46.4844 10.0491 47.3038 10.8685 48.3146 10.8685Z" fill="#248C59"/>
<path d="M42.3771 10.8685C43.388 10.8685 44.2074 10.0491 44.2074 9.03827C44.2074 8.02745 43.388 7.20801 42.3771 7.20801C41.3663 7.20801 40.5469 8.02745 40.5469 9.03827C40.5469 10.0491 41.3663 10.8685 42.3771 10.8685Z" fill="#248C59"/>
<path d="M40.8551 64.8665V53.198C40.8551 52.8116 40.5415 52.498 40.1551 52.498C39.7686 52.498 39.4551 52.8116 39.4551 53.198V64.8665C39.4551 65.253 39.7686 65.5665 40.1551 65.5665C40.5415 65.5665 40.8551 65.253 40.8551 64.8665Z" fill="#248C59"/>
<path d="M29.4156 64.8665V53.198C29.4156 52.8116 29.1021 52.498 28.7156 52.498C28.3292 52.498 28.0156 52.8116 28.0156 53.198V64.8665C28.0156 65.253 28.3292 65.5665 28.7156 65.5665C29.1021 65.5665 29.4156 65.253 29.4156 64.8665Z" fill="#248C59"/>
<path d="M32.2421 65.5527C32.6226 65.6275 32.9895 65.3814 33.0647 65.0022L34.4227 58.128L35.8993 65.0132C35.9828 65.4009 36.3668 65.6318 36.7305 65.5509C37.1088 65.4698 37.3494 65.0979 37.2683 64.7197L35.0794 54.5122C35.0102 54.1896 34.7249 53.959 34.3949 53.959C34.3931 53.959 34.3913 53.959 34.3895 53.959C34.0572 53.9617 33.7724 54.1978 33.7081 54.5232L31.6911 64.7306C31.6163 65.1098 31.8629 65.478 32.2421 65.5527Z" fill="#248C59"/>
<path d="M36.7318 33.5498C36.4747 33.5498 36.2505 33.6883 36.1288 33.8952C35.4981 34.1359 33.2687 34.1386 32.6389 33.898C32.5176 33.6893 32.2921 33.5498 32.0337 33.5498C31.2502 33.5498 31.0361 34.5985 31.8518 35.0692C32.7969 35.6153 35.9717 35.6134 36.9168 35.0656C37.7331 34.5938 37.5074 33.5498 36.7318 33.5498Z" fill="#248C59"/>
<path d="M24.7603 30.2823L23.5599 26.6866C23.1703 25.5236 21.9703 24.8327 20.749 25.0943C19.3453 25.3897 18.5031 26.8451 18.9543 28.2133C20.5888 32.9396 20.4615 33.367 21.1883 34.0393C26.619 38.9442 26.3599 39.1155 27.388 39.4007L27.394 47.8525C27.3958 49.7756 28.9608 51.3388 30.8839 51.3388H30.8858L38.1729 51.3324C40.1021 51.3305 41.6606 49.77 41.6596 47.8406L41.6533 39.4026C42.0333 39.2983 42.3818 39.1207 42.6472 38.8682L47.858 34.0393C48.1802 33.7404 48.4154 33.3548 48.5298 32.9501L50.0915 28.2142C50.3062 27.5625 50.2337 26.8479 49.8915 26.2536C48.8543 24.4476 46.1458 24.718 45.4859 26.6875L44.2856 30.2814C43.949 31.2899 43.2602 31.5864 42.001 32.8435C40.9829 33.787 39.8377 33.4957 39.3769 33.5499C38.9904 33.5499 38.6769 33.8634 38.6769 34.2499C38.6769 34.6363 38.9904 34.9499 39.3769 34.9499C39.8058 34.8916 41.4643 35.2488 42.9525 33.8698C44.1091 32.6873 45.1202 32.2 45.6136 30.7252L46.8139 27.1314C46.9775 26.641 47.4843 26.3575 48.007 26.4633C48.6058 26.5908 48.9507 27.2052 48.7617 27.7758C47.1051 32.6947 47.2241 32.7165 46.906 33.013C46.8126 33.0995 41.3491 38.1625 41.697 37.8401C41.5243 38.0042 41.2413 38.1062 40.9583 38.1062C40.9573 38.1062 40.9565 38.1067 40.9555 38.1067C40.9546 38.1067 40.9538 38.1062 40.9528 38.1062C40.5663 38.1062 40.2524 38.4198 40.2528 38.8071L40.2596 47.8415C40.2606 48.9916 39.3304 49.9324 38.1719 49.9324L30.8848 49.9388C30.8844 49.9388 30.8839 49.9388 30.8835 49.9388C29.7323 49.9388 28.7949 49.0027 28.794 47.8506C28.7664 38.3183 28.8353 38.7967 28.7352 38.5467C28.7335 38.5426 28.7343 38.5378 28.7325 38.5337C28.6264 38.2824 28.3777 38.1062 28.0876 38.1062C27.8041 38.1062 27.5216 38.0042 27.3347 37.8273C21.8375 32.6597 22.0012 33.0526 21.8459 32.5126L20.2841 27.7749C20.1921 27.4978 20.2221 27.2052 20.368 26.9509C20.7942 26.2103 21.9466 26.2785 22.2319 27.1305L23.4323 30.7252C23.9227 32.1954 24.9379 32.6885 26.0933 33.8698C27.524 35.1955 29.1383 34.9127 29.3841 34.9499C29.7706 34.9499 30.0841 34.6363 30.0841 34.2499C30.0841 33.8634 29.7706 33.5499 29.3841 33.5499C29.1035 33.5118 28.0184 33.7458 27.0449 32.8435C25.8107 31.6116 25.0956 31.2883 24.7603 30.2823Z" fill="#248C59"/>
<path d="M29.7701 21.9239C28.1619 22.7352 28.4757 25.0654 30.1868 25.4675C30.0746 25.4646 29.9624 25.457 29.848 25.4848C28.3947 25.8911 28.6561 28.4082 30.0731 28.8873C31.6127 34.071 37.279 34.1174 38.8632 28.9201C39.4165 28.787 39.9055 28.2812 40.0928 27.5785C40.395 26.5014 39.8584 25.4774 38.9237 25.4484C39.7325 25.2287 40.3321 24.4956 40.3321 23.6182C40.3321 22.8625 39.8863 22.2138 39.247 21.9064C39.2344 19.3049 37.1137 17.1924 34.5065 17.1924C31.8965 17.1924 29.7731 19.3141 29.7701 21.9239ZM38.7748 26.9331C38.787 27.1254 38.7107 27.3924 38.5725 27.5283C38.4198 27.4718 38.2475 27.4709 38.089 27.5292C37.8666 27.6122 37.7011 27.8018 37.6496 28.0333C37.2089 30.0157 35.9024 31.4002 34.4714 31.4002C33.05 31.4002 31.7488 30.0339 31.3077 28.077C31.2266 27.7161 30.8716 27.4727 30.4947 27.5438C30.37 27.4419 30.2496 27.1485 30.2768 26.9067C30.5758 26.9805 30.9026 26.8529 31.0607 26.5676C31.2489 26.2304 31.1272 25.8038 30.7895 25.6161C30.6882 25.5596 30.5785 25.5352 30.47 25.5069C30.8056 25.5333 38.3863 25.5199 38.4803 25.5168C37.2136 25.9614 37.9458 27.2872 38.7748 26.9331ZM38.428 24.1222H30.6209C30.3429 24.1222 30.1169 23.8962 30.1169 23.6182C30.1169 23.3402 30.3429 23.1141 30.6209 23.1141H38.428C38.706 23.1141 38.9321 23.3402 38.9321 23.6182C38.9321 23.8962 38.706 24.1222 38.428 24.1222ZM34.5065 18.5924C36.2765 18.5924 37.7298 19.9732 37.8424 21.7123H31.1765C31.2886 19.9732 32.7396 18.5924 34.5065 18.5924Z" fill="#248C59"/>
<path d="M52.477 37.5255C52.6438 37.1764 52.4957 36.759 52.1471 36.5922C51.798 36.4263 51.3801 36.573 51.2137 36.9221C50.9033 37.571 50.043 38.0908 50.043 39.6136C50.043 40.711 50.4914 41.2916 50.8519 41.7583C51.1518 42.1475 51.3687 42.4282 51.3687 43.048C51.3687 43.6751 51.1508 43.9577 50.8496 44.3487C50.4905 44.8153 50.043 45.3968 50.043 46.4924C50.043 47.5953 50.4919 48.1777 50.8523 48.6462C51.1632 49.05 51.3687 49.317 51.3687 49.9359C51.3687 50.3224 51.6822 50.6359 52.0687 50.6359C52.4551 50.6359 52.7687 50.3224 52.7687 49.9359C52.7687 48.8403 52.3212 48.2588 51.9616 47.7922C51.6608 47.4011 51.443 47.1186 51.443 46.4924C51.443 45.8735 51.6485 45.6065 51.9589 45.2027C52.3198 44.7342 52.7687 44.1509 52.7687 43.048C52.7687 41.9506 52.3202 41.37 51.9598 40.9034C51.6599 40.5142 51.443 40.2334 51.443 39.6136C51.443 38.6157 52.0447 38.4311 52.477 37.5255Z" fill="#248C59"/>
<path d="M55.1953 46.4924C55.1953 47.5953 55.6442 48.1777 56.0047 48.6462C56.3155 49.05 56.521 49.317 56.521 49.9359C56.521 50.3224 56.8346 50.6359 57.221 50.6359C57.6075 50.6359 57.921 50.3224 57.921 49.9359C57.921 48.8403 57.4735 48.2588 57.1139 47.7922C56.8132 47.4011 56.5953 47.1186 56.5953 46.4924C56.5953 45.8735 56.8008 45.6065 57.1112 45.2027C57.4721 44.7342 57.921 44.1509 57.921 43.048C57.921 41.9506 57.4726 41.37 57.1121 40.9034C56.8122 40.5142 56.5953 40.2334 56.5953 39.6136C56.5953 38.6157 57.1971 38.4311 57.6294 37.5255C57.7962 37.1764 57.648 36.759 57.2994 36.5922C56.9494 36.4263 56.5329 36.573 56.3661 36.9221C56.0557 37.571 55.1953 38.0908 55.1953 39.6136C55.1953 40.711 55.6438 41.2916 56.0042 41.7583C56.3041 42.1475 56.521 42.4282 56.521 43.048C56.521 43.6751 56.3032 43.9577 56.002 44.3487C55.6428 44.8153 55.1953 45.3968 55.1953 46.4924Z" fill="#248C59"/>
<path d="M12.4746 46.4924C12.4746 47.5953 12.9235 48.1777 13.284 48.6462C13.5948 49.05 13.8003 49.317 13.8003 49.9359C13.8003 50.3224 14.1139 50.6359 14.5003 50.6359C14.8868 50.6359 15.2003 50.3224 15.2003 49.9359C15.2003 48.8403 14.7528 48.2588 14.3932 47.7922C14.0924 47.4011 13.8746 47.1186 13.8746 46.4924C13.8746 45.8735 14.0801 45.6065 14.3905 45.2027C14.7514 44.7342 15.2003 44.1509 15.2003 43.048C15.2003 41.9506 14.7519 41.37 14.3914 40.9034C14.0915 40.5142 13.8746 40.2334 13.8746 39.6136C13.8746 38.6157 14.4764 38.4311 14.9087 37.5255C15.0755 37.1764 14.9273 36.759 14.5787 36.5922C14.2301 36.4263 13.8117 36.573 13.6454 36.9221C13.335 37.571 12.4746 38.0908 12.4746 39.6136C12.4746 40.711 12.923 41.2916 13.2835 41.7583C13.5834 42.1475 13.8003 42.4282 13.8003 43.048C13.8003 43.6751 13.5825 43.9577 13.2812 44.3487C12.9221 44.8153 12.4746 45.3968 12.4746 46.4924Z" fill="#248C59"/>
<path d="M17.627 46.4924C17.627 47.5953 18.0758 48.1777 18.4363 48.6462C18.7471 49.05 18.9527 49.317 18.9527 49.9359C18.9527 50.3224 19.2662 50.6359 19.6527 50.6359C20.0391 50.6359 20.3527 50.3224 20.3527 49.9359C20.3527 48.8403 19.9051 48.2588 19.5456 47.7922C19.2448 47.4011 19.027 47.1186 19.027 46.4924C19.027 45.8735 19.2325 45.6065 19.5428 45.2027C19.9038 44.7342 20.3527 44.1509 20.3527 43.048C20.3527 41.9506 19.9042 41.37 19.5438 40.9034C19.2439 40.5142 19.027 40.2334 19.027 39.6136C19.027 38.6157 19.6287 38.4311 20.061 37.5255C20.2278 37.1764 20.0797 36.759 19.7311 36.5922C19.3815 36.4263 18.9641 36.573 18.7977 36.9221C18.4873 37.571 17.627 38.0908 17.627 39.6136C17.627 40.711 18.0754 41.2916 18.4359 41.7583C18.7357 42.1475 18.9527 42.4282 18.9527 43.048C18.9527 43.6751 18.7348 43.9577 18.4336 44.3487C18.0745 44.8153 17.627 45.3968 17.627 46.4924Z" fill="#248C59"/>
</svg>
