<svg width="81" height="81" viewBox="0 0 81 81" fill="none" xmlns="http://www.w3.org/2000/svg">
<path d="M45.1833 43.6198C44.8942 43.3987 44.5511 43.2591 44.1898 43.2154C43.8285 43.1717 43.4621 43.2256 43.1286 43.3714C42.8051 43.5115 42.525 43.7356 42.3173 44.0205C42.1096 44.3053 41.9819 44.6405 41.9473 44.9914C41.6802 47.1036 40.9525 49.1313 39.8157 50.9314C39.0278 52.2362 38.4202 53.6418 38.0094 55.1096C37.7436 56.2346 37.7316 57.4048 37.9745 58.535C38.2173 59.6652 38.7089 60.7271 39.4134 61.6436C40.1398 62.5939 41.0688 63.3703 42.133 63.9163C43.1972 64.4623 44.3698 64.7642 45.5653 64.7999C45.6693 64.7999 45.7719 64.7999 45.8745 64.7999C48.0455 64.8117 50.1373 63.9847 51.7133 62.4914C52.4323 61.8117 53.0058 60.9929 53.3989 60.0849C53.792 59.1768 53.9965 58.1984 54.0002 57.2089C54.0002 51.0569 47.8334 45.6556 45.1833 43.6198ZM49.8381 60.5488C49.2802 61.0724 48.6233 61.4793 47.9061 61.7456C47.1888 62.012 46.4256 62.1324 45.6612 62.0999C44.8658 62.0787 44.0851 61.8805 43.3759 61.5197C42.6667 61.1589 42.0468 60.6446 41.5612 60.0142C41.0991 59.4153 40.7765 58.7208 40.6167 57.9814C40.457 57.242 40.4642 56.4763 40.6378 55.7401C40.9971 54.5072 41.5173 53.327 42.1849 52.2301C43.2585 50.4621 44.0288 48.5269 44.4638 46.5047C46.8452 48.4865 51.3002 52.7984 51.3002 57.2089C51.2951 57.8355 51.163 58.4547 50.9117 59.0288C50.6604 59.6029 50.2951 60.12 49.8381 60.5488Z" fill="#248C59"/>
<path d="M25.6496 31.05C27.7856 31.05 29.8737 30.4165 31.6498 29.2298C33.4258 28.0431 34.8101 26.3564 35.6275 24.3829C36.4449 22.4095 36.6588 20.238 36.2421 18.143C35.8254 16.048 34.7968 14.1236 33.2864 12.6132C31.776 11.1028 29.8516 10.0742 27.7566 9.65747C25.6616 9.24075 23.4901 9.45463 21.5166 10.2721C19.5432 11.0895 17.8565 12.4737 16.6697 14.2498C15.483 16.0258 14.8496 18.1139 14.8496 20.25C14.8528 23.1133 15.9917 25.8585 18.0164 27.8832C20.0411 29.9079 22.7863 31.0467 25.6496 31.05ZM25.6496 12.15C27.2516 12.15 28.8177 12.625 30.1497 13.5151C31.4818 14.4051 32.52 15.6701 33.133 17.1502C33.7461 18.6303 33.9065 20.2589 33.594 21.8302C33.2814 23.4014 32.51 24.8447 31.3772 25.9775C30.2444 27.1103 28.8011 27.8818 27.2298 28.1943C25.6586 28.5069 24.03 28.3465 22.5499 27.7334C21.0698 27.1203 19.8047 26.0821 18.9147 24.7501C18.0247 23.418 17.5496 21.852 17.5496 20.25C17.5518 18.1024 18.4058 16.0433 19.9244 14.5248C21.443 13.0062 23.502 12.1521 25.6496 12.15Z" fill="#248C59"/>
<path d="M12.1496 60.7499C12.9506 60.7499 13.7337 60.5124 14.3997 60.0674C15.0657 59.6223 15.5848 58.9898 15.8913 58.2498C16.1979 57.5097 16.2781 56.6954 16.1218 55.9098C15.9655 55.1242 15.5798 54.4025 15.0134 53.8361C14.447 53.2697 13.7253 52.884 12.9397 52.7277C12.1541 52.5715 11.3398 52.6517 10.5997 52.9582C9.8597 53.2647 9.22718 53.7838 8.78216 54.4498C8.33714 55.1159 8.09961 55.8989 8.09961 56.6999C8.09961 57.774 8.5263 58.8042 9.28583 59.5637C10.0453 60.3232 11.0755 60.7499 12.1496 60.7499ZM12.1496 55.3499C12.4166 55.3499 12.6776 55.4291 12.8996 55.5774C13.1216 55.7258 13.2947 55.9366 13.3968 56.1833C13.499 56.43 13.5258 56.7014 13.4737 56.9633C13.4216 57.2252 13.293 57.4657 13.1042 57.6545C12.9154 57.8433 12.6749 57.9719 12.413 58.024C12.1511 58.0761 11.8797 58.0493 11.633 57.9471C11.3863 57.845 11.1755 57.6719 11.0271 57.4499C10.8788 57.2279 10.7996 56.9669 10.7996 56.6999C10.7996 56.3419 10.9418 55.9985 11.195 55.7453C11.4482 55.4921 11.7916 55.3499 12.1496 55.3499Z" fill="#248C59"/>
<path d="M25.6505 21.6C26.0085 21.5999 26.3518 21.4576 26.6049 21.2044L29.3049 18.5044C29.5509 18.2498 29.6869 17.9088 29.6839 17.5548C29.6808 17.2009 29.5388 16.8623 29.2885 16.612C29.0382 16.3617 28.6996 16.2197 28.3456 16.2166C27.9917 16.2135 27.6507 16.3496 27.396 16.5955L24.696 19.2955C24.5073 19.4843 24.3788 19.7248 24.3267 19.9867C24.2746 20.2485 24.3014 20.5199 24.4035 20.7665C24.5057 21.0132 24.6787 21.224 24.9006 21.3724C25.1226 21.5207 25.3835 21.5999 25.6505 21.6Z" fill="#248C59"/>
<path d="M74.25 32.4H51.3V6.75C51.2979 4.96045 50.586 3.2448 49.3206 1.9794C48.0552 0.713991 46.3396 0.00214361 44.55 0L6.75 0C4.96045 0.00214361 3.2448 0.713991 1.9794 1.9794C0.713991 3.2448 0.00214361 4.96045 0 6.75L0 60.75C0.00303677 61.7924 0.248571 62.8198 0.717184 63.7509C1.1858 64.6821 1.86463 65.4914 2.7 66.1149V68.85C2.70447 70.0437 3.10435 71.2023 3.8371 72.1446C4.56986 73.0869 5.5942 73.7599 6.75 74.0583V78.3C6.75 79.0161 7.03446 79.7028 7.54081 80.2092C8.04716 80.7155 8.73392 81 9.45 81H13.5C14.2161 81 14.9028 80.7155 15.4092 80.2092C15.9155 79.7028 16.2 79.0161 16.2 78.3V74.25H29.7418C30.8966 75.1219 32.3031 75.5956 33.75 75.6H35.1V76.95C35.1 78.0241 35.5267 79.0543 36.2862 79.8138C37.0457 80.5733 38.0759 81 39.15 81H68.85C69.9241 81 70.9543 80.5733 71.7138 79.8138C72.4733 79.0543 72.9 78.0241 72.9 76.95V75.6H74.25C76.0396 75.5979 77.7552 74.886 79.0206 73.6206C80.286 72.3552 80.9979 70.6396 81 68.85V39.15C80.9979 37.3604 80.286 35.6448 79.0206 34.3794C77.7552 33.114 76.0396 32.4021 74.25 32.4ZM6.75 2.7H44.55C45.6241 2.7 46.6543 3.1267 47.4138 3.88622C48.1733 4.64574 48.6 5.67587 48.6 6.75V32.4H33.75C31.9604 32.4021 30.2448 33.114 28.9794 34.3794C27.714 35.6448 27.0021 37.3604 27 39.15V47.25H2.7V6.75C2.7 5.67587 3.1267 4.64574 3.88622 3.88622C4.64574 3.1267 5.67587 2.7 6.75 2.7ZM2.7 60.75V49.95H27V52.8984C26.5677 52.7385 26.1109 52.6545 25.65 52.65C24.5759 52.65 23.5457 53.0767 22.7862 53.8362C22.0267 54.5957 21.6 55.6259 21.6 56.7C21.6 57.7741 22.0267 58.8043 22.7862 59.5638C23.5457 60.3233 24.5759 60.75 25.65 60.75C26.1109 60.7455 26.5677 60.6615 27 60.5016V64.8H6.75C5.67587 64.8 4.64574 64.3733 3.88622 63.6138C3.1267 62.8543 2.7 61.8241 2.7 60.75ZM27 56.7C27 56.967 26.9208 57.228 26.7725 57.45C26.6241 57.672 26.4133 57.8451 26.1666 57.9472C25.9199 58.0494 25.6485 58.0762 25.3866 58.0241C25.1248 57.972 24.8842 57.8434 24.6954 57.6546C24.5066 57.4658 24.378 57.2253 24.3259 56.9634C24.2738 56.7015 24.3006 56.4301 24.4028 56.1834C24.5049 55.9367 24.678 55.7259 24.9 55.5775C25.122 55.4292 25.383 55.35 25.65 55.35C26.008 55.35 26.3514 55.4922 26.6046 55.7454C26.8578 55.9986 27 56.342 27 56.7ZM5.4 68.85V67.365C5.84432 67.4552 6.29661 67.5005 6.75 67.5H27V68.85C27.0008 69.78 27.1958 70.6996 27.5724 71.55H8.1C7.38392 71.55 6.69716 71.2655 6.19081 70.7592C5.68446 70.2528 5.4 69.5661 5.4 68.85ZM13.5 78.3H9.45V74.25H13.5V78.3ZM70.2 76.95C70.2 77.308 70.0578 77.6514 69.8046 77.9046C69.5514 78.1578 69.208 78.3 68.85 78.3H39.15C38.792 78.3 38.4486 78.1578 38.1954 77.9046C37.9422 77.6514 37.8 77.308 37.8 76.95V75.6H70.2V76.95ZM78.3 68.85C78.3 69.9241 77.8733 70.9543 77.1138 71.7138C76.3543 72.4733 75.3241 72.9 74.25 72.9H33.75C32.6759 72.9 31.6457 72.4733 30.8862 71.7138C30.1267 70.9543 29.7 69.9241 29.7 68.85V39.15C29.7 38.0759 30.1267 37.0457 30.8862 36.2862C31.6457 35.5267 32.6759 35.1 33.75 35.1H74.25C75.3241 35.1 76.3543 35.5267 77.1138 36.2862C77.8733 37.0457 78.3 38.0759 78.3 39.15V68.85Z" fill="#248C59"/>
<path d="M71.5504 37.8H36.4504C35.3763 37.8 34.3461 38.2267 33.5866 38.9863C32.8271 39.7458 32.4004 40.7759 32.4004 41.85V66.15C32.4004 67.2242 32.8271 68.2543 33.5866 69.0138C34.3461 69.7734 35.3763 70.2001 36.4504 70.2001H71.5504C72.6245 70.2001 73.6546 69.7734 74.4142 69.0138C75.1737 68.2543 75.6004 67.2242 75.6004 66.15V41.85C75.6004 40.7759 75.1737 39.7458 74.4142 38.9863C73.6546 38.2267 72.6245 37.8 71.5504 37.8ZM72.9004 66.15C72.9004 66.5081 72.7582 66.8515 72.505 67.1046C72.2518 67.3578 71.9084 67.5 71.5504 67.5H36.4504C36.0923 67.5 35.749 67.3578 35.4958 67.1046C35.2426 66.8515 35.1004 66.5081 35.1004 66.15V41.85C35.1004 41.492 35.2426 41.1486 35.4958 40.8955C35.749 40.6423 36.0923 40.5 36.4504 40.5H71.5504C71.9084 40.5 72.2518 40.6423 72.505 40.8955C72.7582 41.1486 72.9004 41.492 72.9004 41.85V66.15Z" fill="#248C59"/>
<path d="M68.8492 44.55H58.0492C57.6912 44.55 57.3478 44.6923 57.0946 44.9455C56.8414 45.1986 56.6992 45.542 56.6992 45.9C56.6992 46.2581 56.8414 46.6015 57.0946 46.8546C57.3478 47.1078 57.6912 47.25 58.0492 47.25H68.8492C69.2073 47.25 69.5506 47.1078 69.8038 46.8546C70.057 46.6015 70.1992 46.2581 70.1992 45.9C70.1992 45.542 70.057 45.1986 69.8038 44.9455C69.5506 44.6923 69.2073 44.55 68.8492 44.55Z" fill="#248C59"/>
<path d="M68.8492 49.95H58.0492C57.6912 49.95 57.3478 50.0922 57.0946 50.3454C56.8414 50.5985 56.6992 50.9419 56.6992 51.3C56.6992 51.658 56.8414 52.0014 57.0946 52.2545C57.3478 52.5077 57.6912 52.65 58.0492 52.65H68.8492C69.2073 52.65 69.5506 52.5077 69.8038 52.2545C70.057 52.0014 70.1992 51.658 70.1992 51.3C70.1992 50.9419 70.057 50.5985 69.8038 50.3454C69.5506 50.0922 69.2073 49.95 68.8492 49.95Z" fill="#248C59"/>
<path d="M68.8492 55.3501H58.0492C57.6912 55.3501 57.3478 55.4923 57.0946 55.7455C56.8414 55.9987 56.6992 56.3421 56.6992 56.7001C56.6992 57.0581 56.8414 57.4015 57.0946 57.6547C57.3478 57.9079 57.6912 58.0501 58.0492 58.0501H68.8492C69.2073 58.0501 69.5506 57.9079 69.8038 57.6547C70.057 57.4015 70.1992 57.0581 70.1992 56.7001C70.1992 56.3421 70.057 55.9987 69.8038 55.7455C69.5506 55.4923 69.2073 55.3501 68.8492 55.3501Z" fill="#248C59"/>
<path d="M68.8492 60.75H58.0492C57.6912 60.75 57.3478 60.8922 57.0946 61.1454C56.8414 61.3986 56.6992 61.742 56.6992 62.1C56.6992 62.458 56.8414 62.8014 57.0946 63.0546C57.3478 63.3078 57.6912 63.45 58.0492 63.45H68.8492C69.2073 63.45 69.5506 63.3078 69.8038 63.0546C70.057 62.8014 70.1992 62.458 70.1992 62.1C70.1992 61.742 70.057 61.3986 69.8038 61.1454C69.5506 60.8922 69.2073 60.75 68.8492 60.75Z" fill="#248C59"/>
</svg>
