<svg width="81" height="69" viewBox="0 0 81 69" fill="none" xmlns="http://www.w3.org/2000/svg">
<path d="M25.5391 27.1702H27.1703V30.4326H25.5391V27.1702Z" fill="#248C59"/>
<path d="M41.8516 27.1702H43.4828V30.4326H41.8516V27.1702Z" fill="#248C59"/>
<path d="M64.1172 0C65.3314 0.00136367 66.4959 0.484221 67.3545 1.34277C68.2131 2.20136 68.6959 3.36585 68.6973 4.58008V9.44727C67.9448 9.27489 67.159 9.27625 66.4072 9.45215V4.58008C66.4065 3.97298 66.1656 3.39022 65.7363 2.96094C65.307 2.53169 64.7243 2.29076 64.1172 2.29004H4.58008C3.97298 2.29076 3.39022 2.53165 2.96094 2.96094C2.53165 3.39022 2.29076 3.97298 2.29004 4.58008V36.6387C2.29078 37.2456 2.53187 37.8276 2.96094 38.2568C3.39022 38.6861 3.97298 38.928 4.58008 38.9287H13.7393V34.3486H5.72461C5.42106 34.3486 5.12971 34.2283 4.91504 34.0137C4.7004 33.799 4.58018 33.5076 4.58008 33.2041V5.72461C4.58012 5.42101 4.70036 5.12972 4.91504 4.91504C5.12972 4.70036 5.42101 4.58012 5.72461 4.58008H62.9727C63.2763 4.58009 63.5675 4.70037 63.7822 4.91504C63.9969 5.12972 64.1171 5.42101 64.1172 5.72461V10.6875C63.7985 10.9926 63.5123 11.3489 63.2695 11.7559L60.7197 16.0293H6.87012V18.3193H27.4785V20.6094H6.87012V22.8994H27.4785V25.1895H6.87012V27.4785H11.4492V29.7686H6.87012V32.0586H13.7393V27.4785H16.0293V50.3779C16.0293 50.6815 15.9089 50.9728 15.6943 51.1875C15.4797 51.4021 15.1883 51.5233 14.8848 51.5234H11.4492V53.1484L18.3193 57.0742L25.1895 53.1484V51.5234H21.7539C21.4503 51.5234 21.159 51.4022 20.9443 51.1875C20.7297 50.9728 20.6094 50.6815 20.6094 50.3779V27.4785H22.8994V32.0586H29.7686V18.3193H32.0586V59.5381C32.0585 59.8416 31.9383 60.133 31.7236 60.3477C31.509 60.5623 31.2176 60.6826 30.9141 60.6826H27.4785V62.3076L34.3486 66.2334L41.2188 62.3076V60.6826H37.7832C37.4797 60.6825 37.1883 60.5623 36.9736 60.3477C36.759 60.133 36.6388 59.8416 36.6387 59.5381V18.3193H38.9287V32.0586H45.7979V27.4785H48.0879V50.3779C48.0879 50.6815 47.9676 50.9728 47.7529 51.1875C47.5382 51.4022 47.247 51.5234 46.9434 51.5234H43.5088V53.1484L50.3779 57.0742L57.248 53.1484V51.5234H53.8125C53.509 51.5233 53.2175 51.4021 53.0029 51.1875C52.7884 50.9728 52.668 50.6814 52.668 50.3779V27.4785H53.8896L53.6895 27.8145C52.3008 30.1423 53.0554 32.9046 54.958 34.3604V38.9287H64.1172C64.7243 38.928 65.307 38.6861 65.7363 38.2568C66.1654 37.8276 66.4065 37.2456 66.4072 36.6387V35.376H68.6973V36.6387C68.6959 37.8529 68.2131 39.0174 67.3545 39.876C66.4959 40.7344 65.3313 41.2174 64.1172 41.2188H54.958V49.2334H58.3926C58.6962 49.2334 58.9874 49.3537 59.2021 49.5684C59.4168 49.783 59.538 50.0743 59.5381 50.3779V53.8125C59.5381 54.0144 59.4841 54.2131 59.3828 54.3877C59.2816 54.5621 59.136 54.7065 58.9609 54.8066L50.9463 59.3867C50.7733 59.4856 50.5772 59.5381 50.3779 59.5381C50.1787 59.5381 49.9825 59.4855 49.8096 59.3867L41.7949 54.8066C41.6199 54.7065 41.4743 54.5621 41.373 54.3877C41.2717 54.2131 41.2188 54.0144 41.2188 53.8125V50.3779C41.2188 50.0743 41.339 49.783 41.5537 49.5684C41.7684 49.3537 42.0597 49.2334 42.3633 49.2334H45.7979V41.2188H38.9287V58.3926H42.3633C42.6669 58.3926 42.9581 58.5138 43.1729 58.7285C43.3875 58.9432 43.5088 59.2345 43.5088 59.5381V62.9727C43.5088 63.1744 43.4547 63.3724 43.3535 63.5469C43.2522 63.7214 43.1068 63.8667 42.9316 63.9668L34.917 68.5469C34.744 68.6457 34.5479 68.6973 34.3486 68.6973C34.1494 68.6973 33.9533 68.6457 33.7803 68.5469L25.7656 63.9668C25.5905 63.8667 25.445 63.7214 25.3438 63.5469C25.2426 63.3724 25.1895 63.1744 25.1895 62.9727V59.5381C25.1895 59.2345 25.3098 58.9432 25.5244 58.7285C25.7391 58.5138 26.0303 58.3926 26.334 58.3926H29.7686V41.2188H22.8994V49.2334H26.334C26.6376 49.2334 26.9288 49.3537 27.1436 49.5684C27.3582 49.783 27.4785 50.0743 27.4785 50.3779V53.8125C27.4785 54.0144 27.4255 54.2131 27.3242 54.3877C27.223 54.5621 27.0774 54.7065 26.9023 54.8066L18.8877 59.3867C18.7147 59.4856 18.5186 59.5381 18.3193 59.5381C18.1201 59.5381 17.924 59.4856 17.751 59.3867L9.73633 54.8066C9.56126 54.7065 9.4157 54.5621 9.31445 54.3877C9.21314 54.2131 9.15918 54.0144 9.15918 53.8125V50.3779C9.15922 50.0743 9.28043 49.783 9.49512 49.5684C9.70983 49.3537 10.0011 49.2334 10.3047 49.2334H13.7393V41.2188H4.58008C3.36593 41.2174 2.20135 40.7345 1.34277 39.876C0.484201 39.0174 0.00138183 37.8529 0 36.6387V4.58008C0.00136371 3.36585 0.484185 2.20136 1.34277 1.34277C2.20136 0.484185 3.36585 0.00136371 4.58008 0H64.1172ZM22.8994 34.3486V38.9287H29.7686V34.3486H22.8994ZM38.9287 34.3486V38.9287H45.7979V34.3486H38.9287ZM55.2559 25.1895H41.2188V22.8994H56.6221L55.2559 25.1895ZM57.9873 20.6094H41.2188V18.3193H59.3535L57.9873 20.6094ZM6.87012 11.4492V13.7393H61.8281V11.4492H6.87012ZM6.87012 6.87012V9.15918H61.8281V6.87012H6.87012Z" fill="#248C59"/>
<path d="M80.6689 30.0526L70.1007 12.5261C69.6843 11.8357 68.9248 11.4067 68.1186 11.4067C67.3123 11.4067 66.5528 11.8357 66.1363 12.5262L55.5682 30.0526C55.1379 30.7663 55.1252 31.6604 55.535 32.386C55.9448 33.1117 56.7171 33.5625 57.5504 33.5625H78.6867C79.52 33.5625 80.2923 33.1117 80.7022 32.386C81.112 31.6603 81.0992 30.7662 80.6689 30.0526ZM79.2416 31.5612C79.1287 31.7609 78.9161 31.885 78.6867 31.885H57.5504C57.321 31.885 57.1084 31.7609 56.9956 31.5612C56.8828 31.3614 56.8863 31.1153 57.0047 30.9189L67.5729 13.3924C67.6876 13.2023 67.8966 13.0842 68.1186 13.0842C68.3405 13.0842 68.5496 13.2023 68.6642 13.3924L79.2324 30.9189C79.3509 31.1153 79.3544 31.3614 79.2416 31.5612Z" fill="#248C59"/>
<path d="M68.1243 18.3083C67.4863 18.3083 66.9883 18.6507 66.9883 19.2577C66.9883 21.1096 67.2061 23.7708 67.2061 25.6228C67.2062 26.1052 67.6264 26.3075 68.1244 26.3075C68.4979 26.3075 69.027 26.1052 69.027 25.6228C69.027 23.7709 69.2448 21.1097 69.2448 19.2577C69.2448 18.6508 68.7313 18.3083 68.1243 18.3083Z" fill="#248C59"/>
<path d="M68.1417 27.3811C67.457 27.3811 66.9434 27.9258 66.9434 28.5795C66.9434 29.2175 67.4569 29.7778 68.1417 29.7778C68.7798 29.7778 69.3245 29.2175 69.3245 28.5795C69.3245 27.9258 68.7797 27.3811 68.1417 27.3811Z" fill="#248C59"/>
</svg>
