<svg width="89" height="80" viewBox="0 0 89 80" fill="none" xmlns="http://www.w3.org/2000/svg">
<path d="M13.397 51.136C12.9664 51.1353 12.5373 51.0863 12.1177 50.9898L7.10096 49.8331C5.14751 49.3892 3.40362 48.2929 2.15681 46.725C0.910003 45.157 0.234703 43.211 0.24225 41.2078V35.355C0.234703 33.3517 0.910003 31.4057 2.15681 29.8378C3.40362 28.2699 5.14751 27.1736 7.10096 26.7297L12.1177 25.573C12.9433 25.3824 13.8013 25.3806 14.6278 25.5676C15.4542 25.7547 16.2278 26.1258 16.8909 26.6533C17.5541 27.1808 18.0897 27.8511 18.4578 28.6143C18.826 29.3775 19.0172 30.2139 19.0172 31.0612V45.5016C19.0167 46.9933 18.4249 48.424 17.3714 49.4801C16.3179 50.5363 14.8887 51.1317 13.397 51.136ZM8.18854 31.4351C7.3005 31.6365 6.50765 32.1346 5.94078 32.8472C5.37391 33.5598 5.06689 34.4444 5.07037 35.355V41.2078C5.06689 42.1184 5.37391 43.003 5.94078 43.7156C6.50765 44.4282 7.3005 44.9263 8.18854 45.1277L13.2053 46.2844C13.323 46.3143 13.4462 46.316 13.5648 46.2892C13.6833 46.2624 13.7939 46.208 13.8874 46.1304C13.9825 46.0558 14.0592 45.9602 14.1115 45.8512C14.1638 45.7422 14.1904 45.6226 14.1891 45.5017V31.0612C14.1904 30.9403 14.1638 30.8207 14.1115 30.7117C14.0592 30.6027 13.9825 30.5072 13.8874 30.4325C13.7939 30.3549 13.6833 30.3005 13.5648 30.2737C13.4462 30.247 13.323 30.2486 13.2053 30.2785L8.18854 31.4351Z" fill="white"/>
<path d="M75.6027 51.136C74.111 51.1317 72.6818 50.5363 71.6283 49.4801C70.5748 48.424 69.9829 46.9933 69.9824 45.5016V31.0612C69.9825 30.2139 70.1737 29.3775 70.5418 28.6143C70.91 27.8511 71.4456 27.1807 72.1087 26.6533C72.7718 26.1258 73.5455 25.7547 74.3719 25.5676C75.1984 25.3806 76.0564 25.3824 76.882 25.573L81.8987 26.7297C83.8522 27.1736 85.596 28.2699 86.8429 29.8378C88.0897 31.4057 88.765 33.3518 88.7574 35.355V41.2078C88.765 43.2111 88.0897 45.1571 86.8429 46.725C85.596 48.2929 83.8522 49.3892 81.8987 49.8331L76.882 50.9898C76.4624 51.0865 76.0333 51.1355 75.6027 51.136ZM75.6091 30.2565C75.4285 30.2579 75.2536 30.3198 75.1125 30.4325C75.0173 30.5072 74.9406 30.6027 74.8883 30.7117C74.836 30.8207 74.8094 30.9403 74.8107 31.0612V45.5016C74.8104 45.6225 74.8375 45.7419 74.8899 45.8509C74.9423 45.9599 75.0187 46.0556 75.1133 46.1309C75.2079 46.2062 75.3184 46.2591 75.4364 46.2857C75.5544 46.3122 75.6768 46.3118 75.7946 46.2843L80.8113 45.1275C81.6993 44.9261 82.4921 44.428 83.0589 43.7154C83.6257 43.0029 83.9328 42.1184 83.9293 41.2078V35.355C83.9327 34.4444 83.6257 33.5599 83.0588 32.8473C82.492 32.1347 81.6991 31.6367 80.8111 31.4353L75.7944 30.2785C75.7336 30.264 75.6716 30.2566 75.6091 30.2565Z" fill="white"/>
<path d="M72.3973 36.672C71.7571 36.6718 71.1432 36.4175 70.6905 35.9648C70.2378 35.5121 69.9834 34.8982 69.9833 34.258V30.7704C69.9833 24.012 67.2985 17.5303 62.5195 12.7513C57.7405 7.97239 51.2589 5.2876 44.5004 5.2876C37.7419 5.2876 31.2603 7.97239 26.4813 12.7513C21.7024 17.5303 19.0176 24.012 19.0176 30.7704V34.258C19.0176 34.8982 18.7632 35.5122 18.3105 35.965C17.8578 36.4177 17.2438 36.672 16.6035 36.672C15.9633 36.672 15.3492 36.4177 14.8965 35.965C14.4438 35.5122 14.1895 34.8982 14.1895 34.258V30.7704C14.1895 22.7315 17.3829 15.0218 23.0673 9.33735C28.7517 3.65294 36.4615 0.459473 44.5004 0.459473C52.5394 0.459473 60.2491 3.65294 65.9335 9.33735C71.6179 15.0218 74.8114 22.7315 74.8114 30.7704V34.258C74.8112 34.8982 74.5568 35.5121 74.1041 35.9648C73.6514 36.4175 73.0375 36.6718 72.3973 36.672Z" fill="white"/>
<path d="M46.1094 79.3203C44.677 79.3203 43.2768 78.8956 42.0858 78.0998C40.8949 77.304 39.9666 76.1729 39.4185 74.8496C38.8703 73.5263 38.7269 72.0701 39.0063 70.6652C39.2858 69.2604 39.9755 67.97 40.9884 66.9571C42.0012 65.9443 43.2917 65.2545 44.6965 64.9751C46.1013 64.6957 47.5575 64.8391 48.8808 65.3872C50.2042 65.9354 51.3353 66.8636 52.131 68.0546C52.9268 69.2456 53.3516 70.6458 53.3516 72.0781C53.3492 73.9981 52.5854 75.8389 51.2278 77.1965C49.8701 78.5542 48.0294 79.3179 46.1094 79.3203ZM46.1094 69.6641C45.6319 69.6641 45.1652 69.8056 44.7682 70.0709C44.3712 70.3362 44.0618 70.7132 43.8791 71.1543C43.6964 71.5954 43.6486 72.0808 43.7417 72.5491C43.8348 73.0174 44.0648 73.4475 44.4024 73.7851C44.74 74.1227 45.1701 74.3527 45.6384 74.4458C46.1067 74.5389 46.5921 74.4911 47.0332 74.3084C47.4743 74.1257 47.8513 73.8163 48.1166 73.4193C48.3819 73.0223 48.5234 72.5556 48.5234 72.0781C48.5225 71.4382 48.2678 70.8247 47.8153 70.3722C47.3628 69.9197 46.7493 69.665 46.1094 69.6641Z" fill="#248C59"/>
<path d="M60.9144 56.789H45.0564C39.4442 56.8584 34.0171 54.7832 29.8829 50.987C25.7488 47.1909 23.2195 41.96 22.8112 36.3622C22.6208 33.1775 23.134 29.99 24.3142 27.026C25.4944 24.0619 27.3127 21.3941 29.64 19.2119C31.9673 17.0296 34.7465 15.3866 37.7803 14.3993C40.814 13.412 44.028 13.1048 47.1938 13.4994C51.0934 13.9828 54.7885 15.5158 57.8851 17.9348C60.9817 20.3537 63.3635 23.5679 64.7765 27.2345C66.1895 30.901 66.5806 34.8824 65.9082 38.7538C65.2358 42.6252 63.525 46.2415 60.9584 49.2168L62.945 50.7052C63.5126 51.131 63.9318 51.7246 64.1432 52.402C64.3546 53.0793 64.3475 53.806 64.1229 54.4791C63.8982 55.1522 63.4674 55.7375 62.8916 56.1521C62.3157 56.5667 61.624 56.7895 60.9144 56.789ZM44.5315 18.1672C42.224 18.1622 39.94 18.63 37.8203 19.5417C35.7005 20.4534 33.7901 21.7897 32.2067 23.4682C30.6234 25.1467 29.4007 27.1318 28.614 29.301C27.8274 31.4703 27.4935 33.7777 27.633 36.0809C27.9682 40.4491 29.9578 44.5248 33.1957 47.4759C36.4337 50.427 40.6759 52.0312 45.0564 51.9609H56.5703L55.8536 51.4249C55.5677 51.2098 55.3331 50.9338 55.1668 50.6169C55.0005 50.3001 54.9065 49.9502 54.8918 49.5927C54.8771 49.2351 54.9419 48.8788 55.0816 48.5493C55.2213 48.2199 55.4324 47.9255 55.6996 47.6875C58.1342 45.5369 59.8965 42.7294 60.7747 39.6019C61.653 36.4745 61.6099 33.16 60.6508 30.0563C59.6917 26.9527 57.8572 24.1919 55.3675 22.1052C52.8779 20.0185 49.8389 18.6947 46.6155 18.2927C45.924 18.2088 45.228 18.1669 44.5315 18.1672Z" fill="white"/>
<path d="M44.5 37.4766C45.8332 37.4766 46.9141 36.3957 46.9141 35.0625C46.9141 33.7293 45.8332 32.6484 44.5 32.6484C43.1668 32.6484 42.0859 33.7293 42.0859 35.0625C42.0859 36.3957 43.1668 37.4766 44.5 37.4766Z" fill="#248C59"/>
<path d="M36.4531 37.4766C37.7864 37.4766 38.8672 36.3957 38.8672 35.0625C38.8672 33.7293 37.7864 32.6484 36.4531 32.6484C35.1199 32.6484 34.0391 33.7293 34.0391 35.0625C34.0391 36.3957 35.1199 37.4766 36.4531 37.4766Z" fill="#248C59"/>
<path d="M52.5469 37.4766C53.8801 37.4766 54.9609 36.3957 54.9609 35.0625C54.9609 33.7293 53.8801 32.6484 52.5469 32.6484C51.2136 32.6484 50.1328 33.7293 50.1328 35.0625C50.1328 36.3957 51.2136 37.4766 52.5469 37.4766Z" fill="#248C59"/>
<path d="M39.5431 70.0696C34.002 70.1315 28.5616 68.5866 23.88 65.6218C21.1607 63.8632 18.7729 61.6388 16.8264 59.0508C16.635 58.7981 16.4953 58.5103 16.4152 58.2037C16.3352 57.8971 16.3162 57.5777 16.3596 57.2638C16.4029 56.9498 16.5077 56.6475 16.6679 56.3741C16.828 56.1007 17.0405 55.8614 17.2931 55.6701C17.5458 55.4788 17.8336 55.3391 18.1402 55.259C18.4468 55.1789 18.7662 55.16 19.0801 55.2033C19.3941 55.2467 19.6964 55.3514 19.9698 55.5116C20.2433 55.6718 20.4825 55.8843 20.6738 56.1369C22.2818 58.2725 24.2522 60.1093 26.4952 61.5637C31.7617 64.7885 38.0298 65.9648 44.1072 64.8689C44.7387 64.7647 45.3857 64.9156 45.9059 65.2884C46.4261 65.6613 46.7769 66.2255 46.8811 66.857C46.9854 67.4885 46.8344 68.1356 46.4616 68.6558C46.0887 69.176 45.5245 69.5268 44.893 69.631C43.1247 69.9231 41.3354 70.0698 39.5431 70.0696Z" fill="#248C59"/>
</svg>
