<svg width="81" height="81" viewBox="0 0 81 81" fill="none" xmlns="http://www.w3.org/2000/svg">
<g clip-path="url(#clip0_89_20)">
<path d="M26.7359 47.6949C38.2936 47.6949 47.6964 38.2921 47.6964 26.7344C46.5449 -1.07244 6.9226 -1.06437 5.77539 26.7346C5.77539 38.2921 15.1782 47.6949 26.7359 47.6949ZM26.7359 8.14685C36.9852 8.14685 45.3235 16.4852 45.3235 26.7344C44.3025 51.3935 9.16545 51.3862 8.14828 26.7343C8.14828 16.4852 16.4866 8.14685 26.7359 8.14685Z" fill="#248C59"/>
<path d="M80.9964 67.3804V59.8081L78.5033 56.8625V52.5926H78.5032V47.8016L80.327 46.1502L77.9258 34.3277H74.9313V5.93221C74.9313 2.66111 72.2702 0 68.9991 0H11.7272V2.37288H68.9991C70.9616 2.37288 72.5584 3.96968 72.5584 5.93221V34.3277H71.2978L68.8964 46.1501L70.7202 47.8014V50.651C70.1966 50.9427 69.611 51.096 68.999 51.096H65.2226C69.2911 46.1567 67.5526 38.1215 61.6406 35.4732C61.6408 35.4732 59.9475 34.6737 59.9475 34.6737L59.9489 42.2125L54.5946 42.2116L54.5932 34.674L52.9005 35.4732C46.9889 38.1201 45.2505 46.1602 49.3208 51.096H5.93417C3.97163 51.096 2.37484 49.4992 2.37484 47.5366V5.93205C2.37484 3.96952 3.97163 2.37273 5.93417 2.37273H9.35428V0H5.93417C2.66306 0 0.00195312 2.66111 0.00195312 5.93221V47.5368C0.00195312 50.8079 2.66306 53.469 5.93417 53.469H8.16737V59.7967H23.1956V53.469H52.0697C52.1205 53.4989 52.1705 53.5294 52.2219 53.5584V75.9478C52.2219 77.2959 52.7469 78.5635 53.695 79.5119C55.1587 81.0019 57.3008 81.3884 59.1907 80.6015C61.127 79.8039 62.3269 78.0197 62.322 75.9478L62.3205 53.5598C62.3728 53.5302 62.4237 53.4992 62.4751 53.469H68.999C69.5911 53.469 70.1688 53.3831 70.7201 53.2162V56.8625L68.227 59.8081V74.6097C68.227 78.1302 71.091 80.9943 74.6115 80.9943C78.0408 81.0653 81.0675 78.0391 80.9961 74.6095V69.7532H78.6232V74.6095C78.6232 75.6801 78.2056 76.6872 77.4472 77.4454C74.9503 79.9645 70.5915 78.1565 70.5997 74.6095V60.6773L73.0928 57.7318V54.9655H76.1301V57.732L78.6232 60.6775V67.3804H80.9964ZM20.8228 57.4238H10.5403V53.469H20.8228V57.4238ZM60.6279 51.7661L59.9478 52.0869L59.9492 75.9507C59.9361 78.3261 57.0591 79.5113 55.3784 77.8396C54.8732 77.3342 54.5949 76.6624 54.5949 75.948V52.0856C48.9634 49.9465 47.6674 42.5873 52.2212 38.7019L52.2222 44.5844L62.3226 44.586L62.3213 38.7027C66.6022 42.218 65.7317 49.4587 60.6279 51.7661ZM73.2372 36.7006H75.9863L77.7326 45.2984L76.1303 46.7493V52.5923H73.0933V46.7493L71.491 45.2984L73.2372 36.7006Z" fill="#248C59"/>
<path d="M14.2949 25.607C15.6368 27.0051 18.0483 27.0051 19.3903 25.607C20.1531 24.8438 21.303 25.3616 22.1656 25.9629C22.1203 26.2382 22.0949 26.5221 22.1025 26.8059C19.3638 28.2314 15.4867 30.691 15.1398 33.3315C14.5499 37.1349 18.0621 40.6463 21.9054 40.6142C23.3315 40.6142 24.6601 40.1251 25.609 39.1762C27.0069 37.8343 27.0074 35.423 25.609 34.0809C24.846 33.3181 25.3636 32.1682 25.9649 31.3055C26.2401 31.3508 26.5241 31.3762 26.8079 31.3687C28.4354 34.3816 30.8962 38.5291 34.1322 38.3837C36.5244 38.3835 38.7234 36.9701 39.8798 34.6241C41.531 31.4158 40.3424 26.944 36.6312 26.8065C35.6689 26.8064 34.7637 27.1813 34.0828 27.8622C33.3202 28.6254 32.1701 28.1077 31.3075 27.5062C31.3528 27.231 31.3782 26.947 31.3706 26.6632C34.1093 25.2377 37.9864 22.7782 38.3333 20.1376C38.6866 17.445 37.2315 14.8754 34.6261 13.5912C31.4179 11.9404 26.9458 13.1284 26.8085 16.8398C26.8082 17.8021 27.1833 18.7071 27.8642 19.3881C28.6271 20.1509 28.1097 21.3008 27.5082 22.1634C27.233 22.1182 26.949 22.0927 26.6652 22.1003C25.2397 19.3617 22.7802 15.4846 20.1396 15.1376C14.6962 14.2741 10.5184 21.6438 14.2949 25.607ZM25.1366 25.1344C26.5515 23.7147 29.003 24.7303 28.9995 26.7346C29.0245 27.9509 27.9531 29.0225 26.7366 28.9973C24.7323 29.001 23.7165 26.5492 25.1366 25.1344ZM23.931 35.7588C24.4107 36.2383 24.4107 37.0186 23.931 37.4981C22.8945 38.5349 21.1576 38.371 19.8962 37.7493C18.5599 37.0908 17.2268 35.6653 17.4927 33.6401C17.6353 32.5554 19.7501 30.7731 22.7713 29.1383C23.0358 29.5744 23.3859 29.9802 23.7844 30.3086C22.4987 32.3792 22.5307 34.3583 23.931 35.7588ZM35.7608 29.5401C36.24 29.0603 37.0203 29.0602 37.5001 29.5401C38.5368 30.5766 38.3732 32.3134 37.7513 33.575C37.0928 34.9114 35.6668 36.2459 33.6421 35.9784C32.5574 35.8358 30.775 33.721 29.1401 30.6997C29.4541 30.5086 29.7477 30.279 30.0143 30.0125C30.1185 29.9082 30.2174 29.7989 30.3106 29.6866C32.3813 30.9722 34.3603 30.9403 35.7608 29.5401ZM29.5421 17.7103C29.0625 17.2308 29.0625 16.4505 29.5421 15.971C30.5784 14.9344 32.3157 15.0979 33.577 15.7198C34.9132 16.3783 36.2463 17.8038 35.9804 19.829C35.8378 20.9137 33.723 22.6961 30.7018 24.3308C30.4373 23.8947 30.0872 23.4889 29.6887 23.1605C30.9744 21.0899 30.9424 19.1108 29.5421 17.7103ZM15.7218 19.8942C16.3805 18.5581 17.8068 17.224 19.831 17.4908C20.9157 17.6333 22.6981 19.7482 24.3328 22.7693C23.8967 23.0338 23.4908 23.3839 23.1624 23.7824C21.0918 22.4969 19.1128 22.5287 17.7123 23.929C17.2328 24.4087 16.4525 24.409 15.973 23.929C14.9364 22.8925 15.0999 21.1556 15.7218 19.8942Z" fill="#248C59"/>
<path d="M52.4199 13.9348H68.9997V16.3077H52.4199V13.9348Z" fill="#248C59"/>
<path d="M52.4199 18.8389H68.9997V21.2118H52.4199V18.8389Z" fill="#248C59"/>
<path d="M52.4199 23.7427H68.9997V26.1156H52.4199V23.7427Z" fill="#248C59"/>
<path d="M52.4199 28.6467H68.9997V31.0196H52.4199V28.6467Z" fill="#248C59"/>
<path d="M73.4258 63.2341H75.7987V65.607H73.4258V63.2341Z" fill="#248C59"/>
<path d="M73.4258 67.98H75.7987V70.3529H73.4258V67.98Z" fill="#248C59"/>
</g>
<defs>
<clipPath id="clip0_89_20">
<rect width="81" height="81" fill="white"/>
</clipPath>
</defs>
</svg>
